<svg width="474" height="474" viewBox="0 0 474 474" fill="none" xmlns="http://www.w3.org/2000/svg">
<circle cx="237" cy="237" r="237" fill="white"/>
<path d="M243.159 215.509C242.696 211.543 246.004 208.1 249.973 208.541V208.541C252.612 208.835 254.712 210.821 255.42 213.38C256.691 217.979 258.328 221.161 260.33 222.927C263.063 225.357 267.618 226.572 273.995 226.572L366.009 226.799C370.868 226.799 374.133 226.192 375.803 224.977C377.473 223.914 378.308 221.713 378.308 218.372C378.308 217.309 378.232 215.867 378.081 214.045C378.081 212.792 378.038 211.624 377.952 210.542C377.902 209.909 378.23 209.301 378.798 209.017V209.017C379.072 208.88 379.382 208.829 379.686 208.872L382.218 209.226C387.028 209.9 390.613 214.015 390.526 218.871C390.489 220.897 390.44 223.008 390.379 225.205C390.228 230.823 390.152 235.606 390.152 239.554C390.152 242.591 390.304 246.766 390.607 252.08C390.862 255.05 391.116 258.067 391.371 261.131C391.689 264.966 388.464 268.154 384.633 267.799V267.799C381.737 267.531 379.472 265.272 378.873 262.426C378.149 258.994 377.202 256.532 376.031 255.041C374.361 253.067 371.324 251.929 366.92 251.625C359.025 251.169 350.674 250.714 341.867 250.258C333.06 249.955 324.254 249.651 315.447 249.347C306.792 249.196 298.669 249.044 291.077 248.892C283.637 248.74 277.336 248.664 272.173 248.664C266.1 248.664 262 249.271 259.874 250.486C257.749 251.853 256.686 254.358 256.686 258.002C256.686 259.976 256.762 261.95 256.913 263.924C257.036 265.637 257.158 267.103 257.281 268.323C257.332 268.835 257.086 269.332 256.645 269.596V269.596C256.377 269.757 256.061 269.817 255.753 269.766L252.634 269.246C247.674 268.419 244.122 264.007 244.322 258.982C244.343 258.437 244.365 257.883 244.387 257.319C244.387 253.371 244.463 249.499 244.615 245.703C244.615 241.907 244.615 238.795 244.615 236.365C244.615 232.873 244.387 228.47 243.931 223.155C243.71 220.571 243.452 218.022 243.159 215.509Z" fill="black"/>
<path d="M187.219 141.432C191.471 141.432 195.823 141.23 200.277 140.825C204.731 140.42 208.983 140.116 213.032 139.914C216.878 139.509 220.016 139.104 222.446 138.699V138.699C224.275 138.394 225.89 139.92 225.689 141.764L224.92 148.814C224.532 152.371 221.857 155.203 218.409 156.16C212.313 157.853 208.091 160.029 205.744 162.69C202.707 166.131 201.188 171.901 201.188 179.999L200.885 303.596C200.885 309.872 201.593 314.123 203.01 316.35C204.428 318.577 207.262 319.69 211.513 319.69C213.335 319.69 215.562 319.589 218.194 319.387C219.312 319.294 220.173 319.222 220.777 319.172C221.441 319.116 222.088 319.395 222.504 319.916V319.916C222.854 320.353 223.005 320.916 222.92 321.47L221.226 332.479C220.886 334.687 218.903 336.26 216.676 336.089V336.089C213.842 336.089 210.4 335.988 206.351 335.785C202.099 335.785 197.949 335.684 193.9 335.482C189.649 335.482 186.106 335.482 183.271 335.482C181.044 335.482 178.311 335.482 175.072 335.482C171.631 335.684 168.088 335.785 164.443 335.785C160.799 335.988 157.358 336.19 154.118 336.393C150.677 336.595 147.944 336.696 145.919 336.696C145.188 336.77 144.589 336.829 144.122 336.876C143.296 336.959 142.463 337.002 141.633 336.995C122.203 336.829 107.335 332.782 97.0272 324.853C86.2973 316.957 80.9324 305.418 80.9324 290.234C80.9324 280.111 83.9691 271.001 90.0427 262.903C91.2751 261.301 92.5992 259.761 94.015 258.284C99.7425 252.309 98.2405 238.801 91.2574 234.357V234.357C84.5765 230.106 79.414 224.943 75.7699 218.87C71.9233 212.796 70 205.812 70 197.916C70 186.781 73.2392 176.659 79.7177 167.548C86.1961 158.641 95.1039 151.555 106.441 146.291C117.778 141.027 130.533 138.395 144.704 138.395C147.539 138.395 150.778 138.598 154.422 139.003C158.066 139.205 161.71 139.509 165.355 139.914C168.999 140.319 172.744 140.724 176.591 141.129C180.235 141.331 183.778 141.432 187.219 141.432ZM146.741 229.984C160.06 229.712 170.826 219.044 171.22 205.728L172.035 178.177C172.035 171.091 169.606 166.03 164.747 162.993C159.686 159.957 151.385 158.438 139.846 158.438C128.711 158.438 120.005 161.475 113.729 167.548C107.251 173.824 104.012 182.327 104.012 193.057C104.012 212.388 115.406 224.563 138.194 229.581C139.89 229.954 141.632 230.088 143.369 230.053L146.741 229.984ZM169.898 254.412C169.911 252.177 168.19 250.32 165.962 250.149V250.149C163.33 249.946 160.091 249.541 156.244 248.934C152.398 248.529 148.855 248.225 145.616 248.023C144.493 247.953 143.48 247.895 142.576 247.849C139.973 247.717 137.392 248.235 134.987 249.238V249.238C132.355 250.452 129.419 252.375 126.18 255.007C122.739 257.639 119.803 261.283 117.374 265.94C114.742 270.596 113.426 276.67 113.426 284.16C113.426 295.902 117.374 304.608 125.269 310.277C133.165 315.945 145.413 318.779 162.014 318.779C164.039 318.779 165.456 318.273 166.266 317.261C166.873 316.451 167.278 314.73 167.48 312.099C167.885 306.228 168.29 299.648 168.695 292.36C168.897 285.274 169.201 278.188 169.606 271.102C169.769 265.408 169.866 259.844 169.898 254.412Z" fill="black"/>
<path d="M301.892 334.937C300.788 334.962 299.683 334.895 298.587 334.76C297.857 334.669 296.886 334.549 295.672 334.399C292.632 334.022 288.781 333.653 284.122 333.292C279.462 332.93 274.498 332.572 269.231 332.216C264.166 331.859 259.609 331.699 255.56 331.737C250.499 331.784 245.137 332.138 239.474 332.798C233.812 333.458 228.958 334.01 224.913 334.453V334.453C222.01 334.939 219.439 332.533 219.731 329.605L220.219 324.702C220.576 321.128 223.228 318.259 226.672 317.24C232.561 315.498 236.658 313.296 238.964 310.633C241.966 306.961 243.428 300.874 243.348 292.371L242.511 170.296C242.451 163.817 241.701 159.471 240.264 157.258C239.028 155.042 236.285 153.954 232.033 153.994C230.009 154.013 227.783 154.135 225.356 154.36C224.387 154.45 223.611 154.522 223.029 154.576C222.218 154.651 221.43 154.28 220.972 153.606V153.606C220.657 153.144 220.527 152.58 220.607 152.027L222.242 140.693C222.537 138.655 224.358 137.192 226.411 137.344V137.344C228.841 137.321 231.878 137.394 235.524 137.562C239.371 137.526 243.218 137.592 247.066 137.758C251.115 137.72 254.557 137.688 257.391 137.662C260.832 137.629 265.185 137.589 270.448 137.54C275.71 137.288 280.87 137.037 285.929 136.788C291.191 136.536 295.543 136.394 298.984 136.362C301.331 136.209 302.921 136.106 303.756 136.052C304.218 136.022 304.681 136.004 305.143 136.002C325.094 135.901 342.408 139.484 357.086 146.752C371.932 153.902 383.469 164.322 391.695 178.012C400.122 191.498 404.422 207.452 404.594 225.875C404.739 241.463 402.242 255.861 397.101 269.069C391.959 282.074 384.677 293.581 375.255 303.59C365.831 313.396 354.767 321.091 342.065 326.677C329.824 331.863 316.433 334.616 301.892 334.937ZM285.805 155.921C281.958 155.957 279.33 156.387 277.921 157.21C276.714 158.031 276.023 159.961 275.849 162.999C274.922 193.782 274.157 220.21 273.553 242.284C272.949 264.357 272.693 280.253 272.784 289.97C272.844 296.448 273.803 301.501 275.659 305.128C277.515 308.755 280.778 311.356 285.45 312.932C290.322 314.304 297.11 314.949 305.815 314.868C325.857 314.68 341.279 307.653 352.083 293.784C363.086 279.712 368.469 259.922 368.231 234.414C368.066 216.802 364.892 202.153 358.709 190.468C352.526 178.783 343.334 170.062 331.133 164.305C318.931 158.547 303.822 155.753 285.805 155.921Z" fill="black"/>
</svg>
