<svg width="490" height="321" viewBox="0 0 490 321" fill="none" xmlns="http://www.w3.org/2000/svg">
<path d="M489.183 206.18V206.179C489.183 188.446 485.162 171.884 478.173 157.811L478.173 157.81C475.613 152.614 472.597 147.689 469.166 143.102L469.566 142.803L469.166 143.102C468.04 141.595 466.876 140.142 465.673 138.742L465.671 138.74C462.949 135.54 459.998 132.57 456.845 129.858L456.653 129.692L456.673 129.439L456.683 129.316C456.734 128.684 456.783 128.07 456.818 127.448L456.818 127.436C456.826 127.347 456.833 127.266 456.84 127.189C456.857 127.011 456.871 126.858 456.871 126.7V126.686L456.872 126.671C457.008 124.367 457.083 122.046 457.083 119.709C457.08 117.102 456.992 114.522 456.82 111.969C456.784 111.751 456.784 111.544 456.784 111.382C456.43 106.437 455.75 101.523 454.75 96.6794L454.749 96.6736C454.725 96.55 454.699 96.4267 454.672 96.2987L454.671 96.292C454.645 96.169 454.618 96.0414 454.592 95.9121C453.523 90.9029 452.099 85.9874 450.335 81.2075L450.332 81.2004L450.33 81.1931C450.29 81.0729 450.248 80.9618 450.201 80.8381C450.179 80.7803 450.156 80.7198 450.132 80.6542C448.22 75.55 445.906 70.6287 443.214 65.9434L443.212 65.94C442.995 65.5559 442.769 65.1748 442.541 64.7948L442.54 64.7924C439.408 59.5001 435.769 54.5707 431.68 50.0838C421.642 39.1205 409.227 31.4263 395.528 28.3279L395.528 28.3278C384.845 25.9043 373.764 26.3666 363.291 29.6729C358.279 31.258 353.455 33.4521 348.912 36.2123L348.911 36.2126C347.734 36.9257 346.576 37.6711 345.437 38.4488L345.131 38.6575L344.842 38.4262C343.901 37.6724 342.946 36.9244 341.977 36.1822C335.684 31.3726 329.09 27.0271 322.243 23.1759L322.242 23.1756C314.645 18.8925 306.768 15.2011 298.672 12.1301L298.67 12.1293L297.843 11.8118C297.842 11.8115 297.841 11.8112 297.841 11.8109C294.561 10.583 291.233 9.4507 287.857 8.41411C287.277 8.23604 286.7 8.06594 286.117 7.89552H284.8C284.414 7.90497 284.034 7.8101 283.695 7.62194L283.938 7.18483L283.695 7.62193C283.414 7.46576 283.17 7.2502 282.976 6.99162C267.202 2.65842 250.977 0.477191 234.688 0.50018C234.688 0.50018 234.688 0.50018 234.688 0.50018M489.183 206.18L224.606 0.279333C227.929 0.0991384 231.289 0.00608857 234.687 0.000180565L234.688 0.50018M489.183 206.18C489.191 214.839 488.209 223.467 486.259 231.872C485.603 234.704 484.841 237.477 483.973 240.19L483.972 240.191C482.91 243.54 481.679 246.826 480.285 250.033L480.285 250.034C479.583 251.656 478.84 253.245 478.058 254.802L478.005 254.908L478.005 255.027C478.018 263.881 476.309 272.641 472.988 280.753M489.183 206.18L472.988 280.753M234.688 0.50018C231.299 0.506076 227.947 0.598891 224.633 0.778599L224.633 0.778619C213.724 1.36214 202.882 2.93799 192.224 5.48905M234.688 0.50018L66.4862 93.4787M86.2796 81.5528C87.5617 79.3668 88.895 77.2193 90.2796 75.1101M86.2796 81.5528C86.0221 81.9959 85.7687 82.439 85.5195 82.8821C85.4579 82.9793 85.401 83.0799 85.3492 83.1834C85.1041 83.5999 84.8673 84.0164 84.6264 84.4595C84.1031 85.3856 83.5921 86.3206 83.102 87.2644C82.994 87.4593 82.8902 87.6587 82.7863 87.8625M86.2796 81.5528L86.7109 81.8058C86.7111 81.8054 86.7113 81.805 86.7116 81.8046M86.2796 81.5528L86.7119 81.8041C86.7118 81.8042 86.7117 81.8044 86.7116 81.8046M90.2796 75.1101L12.9045 236.975C5.03326 222.242 0.44342 204.593 0.44342 185.628C0.44342 161.701 7.73731 139.874 19.7207 123.35C22.219 119.898 24.9556 116.65 27.9077 113.633C30.8204 110.648 33.9511 107.914 37.2701 105.458C39.9256 103.491 42.7008 101.715 45.5775 100.141C46.7779 99.4895 47.9825 98.8736 49.2078 98.302C50.2836 97.7924 51.3719 97.3183 52.4726 96.8708M90.2796 75.1101L90.6327 74.5695M90.2796 75.1101L91.2889 73.5947M82.7863 87.8625C82.785 87.8728 82.785 87.8833 82.7863 87.8936C82.1799 89.0456 81.5776 90.2243 80.9961 91.4073M82.7863 87.8625L82.8347 87.8872L83.2318 88.0895C83.2543 88.0453 83.2768 88.0015 83.2992 87.9581M82.7863 87.8625L82.9038 87.8781L83.282 87.928C83.2864 87.8948 83.2864 87.8613 83.282 87.8281L83.2992 87.9581M80.9961 91.4073C80.9282 91.5502 80.8579 91.6948 80.7873 91.8399C80.6981 92.0235 80.6084 92.2079 80.5226 92.391C79.0646 92.2847 77.5942 92.2227 76.1155 92.2227H75.3886M80.9961 91.4073L81.4448 91.6279C81.4453 91.6269 81.4458 91.6259 81.4463 91.6249M80.9961 91.4073L81.4477 91.6219C81.4472 91.6229 81.4467 91.6239 81.4463 91.6249M75.3886 92.2227C74.0469 92.2404 72.7136 92.298 71.3927 92.4043M75.3886 92.2227V92.7227H75.3917M75.3886 92.2227L75.3952 92.7226C75.394 92.7226 75.3929 92.7226 75.3917 92.7227M71.3927 92.4043C69.7313 92.5417 68.0698 92.7234 66.4083 92.9848M71.3927 92.4043L71.4329 92.9027M71.3927 92.4043L71.4339 92.9026C71.4336 92.9026 71.4332 92.9027 71.4329 92.9027M66.4083 92.9848C64.4034 93.3009 62.4318 93.7115 60.4934 94.2166C59.1753 94.5534 57.8392 94.9462 56.4851 95.3952C55.131 95.8443 53.7935 96.3361 52.4726 96.8708M66.4083 92.9848L66.4862 93.4787M66.4083 92.9848L66.486 93.4787M52.4726 96.8708L52.661 97.334C52.6607 97.334 52.6605 97.3341 52.6603 97.3342M52.4726 96.8708L52.6603 97.3342M472.988 280.753C466.982 295.312 456.275 307.075 442.827 313.908L442.826 313.908C434.417 318.188 425.228 320.438 415.914 320.5H93.3243H93.3231C79.0652 320.532 65.0513 316.537 52.7062 308.916L52.7017 308.914L52.5173 308.802C52.5163 308.802 52.5153 308.801 52.5143 308.801C50.7566 307.703 49.0428 306.541 47.373 305.314C43.6146 302.545 40.0832 299.439 36.817 296.031L36.8168 296.031C32.3964 291.423 28.5007 286.273 25.2107 280.69L25.2105 280.689C17.4844 267.603 13.3902 252.446 13.4045 236.975L13.4046 236.85L13.3455 236.739C5.51398 222.08 0.94342 204.513 0.94342 185.628C0.94342 161.801 8.20712 140.078 20.1255 123.644L20.1258 123.644C22.6098 120.211 25.3305 116.982 28.2651 113.983L28.2656 113.982C31.1598 111.016 34.2702 108.3 37.5675 105.86L37.5677 105.86C40.2045 103.907 42.96 102.143 45.816 100.58C47.0093 99.9328 48.2048 99.3216 49.4192 98.7551L49.4219 98.7539C50.488 98.2489 51.5674 97.7786 52.6602 97.3343L472.988 280.753ZM52.6603 97.3342C53.9712 96.8036 55.2986 96.3155 56.6425 95.8698C57.986 95.4243 59.3109 95.0348 60.6172 94.7011L60.6195 94.7005C62.5418 94.1995 64.4972 93.7923 66.486 93.4787M52.6603 97.3342L66.486 93.4787M66.486 93.4787L66.4862 93.4787M66.4862 93.4787C68.132 93.2197 69.7804 93.0393 71.4329 92.9027M71.4329 92.9027C72.7402 92.7974 74.0611 92.7403 75.3917 92.7227M75.3917 92.7227H76.1155C77.5803 92.7227 79.0384 92.7841 80.4862 92.8897L80.8293 92.9147L80.9753 92.6032C81.0621 92.4181 81.147 92.2435 81.2333 92.0661C81.3029 91.9231 81.3734 91.7783 81.4463 91.6249M81.4463 91.6249C82.0251 90.4474 82.6247 89.274 83.2288 88.1265L83.3028 87.9858L83.2992 87.9581M83.2992 87.9581C83.3789 87.8034 83.4582 87.6532 83.5394 87.5066L83.5395 87.5067L83.5457 87.4948C84.0327 86.5572 84.5407 85.6275 85.0617 84.7055L85.0618 84.7056L85.0657 84.6984C85.3037 84.2607 85.5376 83.8491 85.7801 83.437L85.7887 83.4224L85.7962 83.4073C85.8406 83.3188 85.8892 83.2328 85.9418 83.1497L85.9488 83.1387L85.9553 83.1272C86.2032 82.6864 86.4553 82.2455 86.7116 81.8046M86.7116 81.8046C87.9892 79.6263 89.3179 77.4862 90.6976 75.3845L90.6982 75.3835L91.0502 74.8446L90.6327 74.5695M90.6327 74.5695L91.0513 74.8429L91.051 74.8434C91.1043 74.7625 91.1554 74.684 91.2055 74.607C91.366 74.3605 91.5162 74.1299 91.6919 73.8908L91.6983 73.8821L91.7043 73.8731C92.2755 73.0209 92.863 72.1646 93.4545 71.3263L93.4576 71.3218C93.8735 70.7184 94.2808 70.1322 94.7186 69.5743L94.7239 69.5676L94.7289 69.5607C95.8065 68.087 96.9117 66.6132 98.0447 65.1393C99.1749 63.669 100.349 62.2176 101.568 60.7852L101.571 60.7813C101.735 60.5846 101.897 60.3944 102.067 60.2053L102.067 60.2054L102.073 60.1977L103.84 58.1405L103.468 57.8071M90.6327 74.5695C90.6829 74.4932 90.7323 74.4174 90.7815 74.3419C90.9437 74.0927 91.1041 73.8463 91.2889 73.5947M103.468 57.8071L103.847 58.1329L103.844 58.1365C103.881 58.0945 103.913 58.0585 103.942 58.0255C103.989 57.9718 104.029 57.9259 104.077 57.8743L104.084 57.8674L104.09 57.8603C104.136 57.8073 104.181 57.7555 104.225 57.7047C104.391 57.5124 104.544 57.334 104.715 57.1587L104.723 57.1501L104.731 57.1411C105.677 56.0701 106.649 55.02 107.629 53.9707M103.468 57.8071L101.694 59.8719M103.468 57.8071C103.499 57.7719 103.529 57.7379 103.558 57.7047C103.61 57.6457 103.66 57.589 103.713 57.5323C103.756 57.4828 103.798 57.4332 103.841 57.3837C104.008 57.1899 104.174 56.9972 104.356 56.8101M107.629 53.9707C112.602 48.6865 117.9 43.7622 123.488 39.2307L123.488 39.2308L123.496 39.2242C123.663 39.0827 123.832 38.9473 124.005 38.8084C124.053 38.7699 124.101 38.7311 124.15 38.6918M107.629 53.9707C107.628 53.9709 107.628 53.9711 107.628 53.9713L107.264 53.6286M107.629 53.9707C107.629 53.9704 107.629 53.9701 107.63 53.9698L107.264 53.6286M124.15 38.6918C125.202 37.8483 126.27 37.0133 127.34 36.1909M124.15 38.6918L123.837 38.3018M124.15 38.6918C124.15 38.6916 124.151 38.6914 124.151 38.6912L123.837 38.3018M127.34 36.1909C133.217 31.6932 139.36 27.6057 145.731 23.9537L145.737 23.95L145.744 23.9461C146.174 23.682 146.614 23.434 147.064 23.1875L147.07 23.1844C152.782 19.9605 158.657 17.0756 164.667 14.5427L164.667 14.5426C167.944 13.1596 171.294 11.8606 174.665 10.6722M127.34 36.1909L127.036 35.7938M127.34 36.1909C127.34 36.1907 127.34 36.1904 127.34 36.1902L127.036 35.7938M174.665 10.6722C176.911 9.88534 179.165 9.13856 181.447 8.43613M174.665 10.6722C174.665 10.6722 174.665 10.6722 174.665 10.6722L174.5 10.2003L174.666 10.6719C174.666 10.672 174.666 10.6721 174.665 10.6722ZM181.447 8.43613C185.014 7.34036 188.607 6.358 192.224 5.48905M181.447 8.43613C181.447 8.43616 181.446 8.43619 181.446 8.43622L181.3 7.95826L181.447 8.43613ZM192.224 5.48905L192.107 5.00278L192.224 5.48895C192.224 5.48898 192.224 5.48902 192.224 5.48905ZM127.036 35.7938C125.964 36.618 124.892 37.4555 123.837 38.3018M127.036 35.7938C132.93 31.2828 139.092 27.183 145.482 23.5199C145.923 23.2497 146.371 22.9971 146.824 22.749C152.553 19.5157 158.445 16.6223 164.473 14.0819L123.837 38.3018M123.837 38.3018C123.79 38.3398 123.743 38.3778 123.695 38.4159C123.521 38.5555 123.346 38.6962 123.173 38.8424M123.837 38.3018L123.173 38.8424M123.173 38.8424C117.568 43.3883 112.253 48.328 107.264 53.6286M123.173 38.8424L104.356 56.8101M107.264 53.6286C106.284 54.6788 105.308 55.7333 104.356 56.8101M104.356 56.8101L101.694 59.8719M101.694 59.8719C101.519 60.0669 101.353 60.2618 101.187 60.4612C99.9633 61.8998 98.7836 63.3576 97.6482 64.8346C96.5129 66.3116 95.4053 67.7886 94.3253 69.2656C93.8767 69.8372 93.4613 70.4354 93.046 71.038C92.452 71.8799 91.8622 72.7395 91.2889 73.5947M101.694 59.8719L91.2889 73.5947" fill="black" stroke="#454545"/>
<path opacity="0.1" d="M442.288 312.897C442.288 315.852 432.53 318.62 415.502 321H93.4305C79.1009 321.032 65.0188 317.105 52.6159 309.618L52.4251 309.505C57.3186 307.645 66.1516 305.91 78.1738 304.344L78.7129 304.275C84.104 303.587 90.1295 302.934 96.7149 302.316C96.8808 302.316 97.0508 302.29 97.2167 302.268C102.442 301.783 108 301.329 113.892 300.905C114.078 300.905 114.261 300.871 114.447 300.862C116.72 300.692 119.04 300.53 121.406 300.377L122.318 300.317C139.549 299.201 159.135 298.31 180.376 297.721H180.401C183.376 297.635 186.383 297.558 189.421 297.492C192.799 297.408 196.219 297.335 199.681 297.271C202.322 297.211 204.997 297.167 207.68 297.124H207.742C219.847 296.934 232.355 296.839 245.144 296.839C276.769 296.839 306.66 297.44 333.147 298.522H333.222C337.294 298.686 341.292 298.868 345.19 299.054L348.508 299.218C352.906 299.437 357.191 299.672 361.363 299.923C410.422 302.835 442.288 307.563 442.288 312.897Z" fill="black"/>
<g opacity="0.4">
<path opacity="0.2" d="M282.949 294.567C282.936 295.045 282.884 295.522 282.795 295.991C279.905 295.5 276.998 295.056 274.075 294.66C274.075 294.536 274.075 294.407 274.075 294.278C274.102 292.948 274.46 291.649 275.113 290.516C275.968 289.069 277.268 288.164 278.701 288.213C280.134 288.262 281.375 289.251 282.143 290.746C282.724 291.921 283.003 293.239 282.949 294.567Z" fill="white"/>
<path opacity="0.2" d="M283.187 286.984C283.289 283.553 281.383 280.704 278.93 280.621C276.477 280.538 274.407 283.253 274.305 286.685C274.204 290.116 276.11 292.965 278.563 293.048C281.015 293.131 283.086 290.416 283.187 286.984Z" fill="white"/>
<path opacity="0.2" d="M283.414 279.388C283.515 275.957 281.609 273.108 279.157 273.025C276.704 272.942 274.633 275.657 274.532 279.088C274.43 282.52 276.336 285.368 278.789 285.451C281.242 285.534 283.312 282.819 283.414 279.388Z" fill="white"/>
<path opacity="0.2" d="M283.636 271.791C283.738 268.36 281.832 265.511 279.379 265.428C276.926 265.345 274.856 268.06 274.754 271.492C274.653 274.923 276.559 277.772 279.012 277.855C281.464 277.938 283.535 275.223 283.636 271.791Z" fill="white"/>
<path opacity="0.2" d="M283.859 264.195C283.96 260.763 282.054 257.915 279.602 257.832C277.149 257.749 275.078 260.464 274.977 263.895C274.875 267.327 276.781 270.175 279.234 270.258C281.687 270.341 283.757 267.626 283.859 264.195Z" fill="white"/>
<path opacity="0.2" d="M264.303 211.487C263.719 210.641 263.191 209.751 262.725 208.824L274.461 207.169L261.829 206.845C260.701 203.988 260.131 200.916 260.153 197.815C260.175 194.715 260.789 191.652 261.957 188.813L278.618 198.774L263.357 185.978C264.896 183.317 266.933 181.025 269.339 179.243C271.745 177.461 274.469 176.228 277.341 175.622C280.213 175.015 283.171 175.048 286.03 175.718C288.89 176.388 291.59 177.681 293.96 179.516C296.331 181.351 298.323 183.688 299.81 186.382C301.298 189.077 302.249 192.069 302.606 195.174C302.962 198.279 302.715 201.429 301.881 204.427C301.047 207.425 299.643 210.208 297.757 212.6C298.667 213.916 299.44 215.334 300.062 216.829L284.66 224.727L300.992 219.478C302.021 223.104 302.187 226.947 301.474 230.659C300.762 234.371 299.195 237.834 296.914 240.736C299.286 244.173 300.704 248.255 301.006 252.513C301.309 256.771 300.484 261.034 298.626 264.815C296.767 268.595 293.951 271.741 290.498 273.892C287.045 276.043 283.096 277.112 279.101 276.978C275.107 276.843 271.228 275.51 267.909 273.131C264.59 270.752 261.965 267.423 260.333 263.525C258.701 259.626 258.129 255.316 258.682 251.087C259.236 246.858 260.891 242.88 263.461 239.609C260.628 235.501 259.169 230.494 259.32 225.394C259.471 220.294 261.221 215.396 264.291 211.487H264.303Z" fill="white"/>
<path opacity="0.1" d="M301.898 226.83C301.752 231.933 299.996 236.834 296.914 240.736C299.286 244.173 300.704 248.255 301.006 252.513C301.309 256.771 300.484 261.034 298.626 264.815C296.767 268.596 293.951 271.741 290.498 273.892C287.045 276.043 283.096 277.112 279.101 276.978C275.107 276.843 271.228 275.51 267.909 273.131C264.59 270.752 261.965 267.423 260.333 263.525C258.701 259.626 258.129 255.316 258.682 251.087C259.236 246.858 260.891 242.88 263.461 239.609C260.732 235.647 301.972 224.279 301.898 226.83Z" fill="white"/>
</g>
<g opacity="0.4">
<path opacity="0.2" d="M219.828 294.567C219.815 295.045 219.764 295.522 219.675 295.991C216.785 295.5 213.878 295.056 210.954 294.66C210.954 294.536 210.954 294.407 210.954 294.278C210.981 292.948 211.34 291.649 211.992 290.516C212.848 289.069 214.148 288.164 215.58 288.213C217.013 288.262 218.255 289.251 219.023 290.746C219.604 291.921 219.882 293.239 219.828 294.567Z" fill="white"/>
<path opacity="0.2" d="M220.063 286.986C220.164 283.555 218.258 280.706 215.805 280.623C213.352 280.54 211.282 283.255 211.18 286.686C211.079 290.118 212.985 292.967 215.438 293.05C217.89 293.132 219.961 290.418 220.063 286.986Z" fill="white"/>
<path opacity="0.2" d="M220.289 279.39C220.391 275.958 218.485 273.109 216.032 273.027C213.579 272.944 211.508 275.658 211.407 279.09C211.305 282.521 213.211 285.37 215.664 285.453C218.117 285.536 220.188 282.821 220.289 279.39Z" fill="white"/>
<path opacity="0.2" d="M220.511 271.793C220.613 268.362 218.707 265.513 216.254 265.43C213.801 265.347 211.731 268.062 211.629 271.493C211.528 274.925 213.434 277.774 215.887 277.857C218.339 277.939 220.41 275.225 220.511 271.793Z" fill="white"/>
<path opacity="0.2" d="M220.734 264.197C220.835 260.765 218.929 257.916 216.477 257.834C214.024 257.751 211.953 260.465 211.852 263.897C211.75 267.328 213.656 270.177 216.109 270.26C218.562 270.343 220.632 267.628 220.734 264.197Z" fill="white"/>
<path opacity="0.2" d="M201.183 211.487C200.598 210.641 200.071 209.751 199.605 208.824L211.341 207.169L198.708 206.845C197.581 203.988 197.011 200.916 197.033 197.815C197.055 194.715 197.669 191.652 198.837 188.813L215.497 198.774L200.236 185.978C201.776 183.317 203.812 181.025 206.218 179.243C208.624 177.461 211.348 176.228 214.22 175.622C217.092 175.015 220.051 175.048 222.91 175.718C225.77 176.388 228.469 177.681 230.84 179.516C233.211 181.351 235.202 183.688 236.69 186.382C238.177 189.077 239.129 192.069 239.485 195.174C239.842 198.279 239.595 201.429 238.761 204.427C237.927 207.425 236.523 210.208 234.637 212.6C235.547 213.916 236.319 215.334 236.942 216.829L221.539 224.727L237.872 219.478C238.9 223.104 239.066 226.947 238.354 230.659C237.642 234.371 236.075 237.834 233.794 240.736C236.165 244.173 237.583 248.255 237.886 252.513C238.188 256.771 237.363 261.034 235.505 264.815C233.647 268.595 230.83 271.741 227.378 273.892C223.925 276.043 219.976 277.112 215.981 276.978C211.986 276.843 208.108 275.51 204.789 273.131C201.47 270.752 198.844 267.423 197.213 263.525C195.581 259.626 195.009 255.316 195.562 251.087C196.115 246.858 197.771 242.88 200.34 239.609C197.507 235.501 196.049 230.494 196.2 225.394C196.35 220.294 198.101 215.396 201.171 211.487H201.183Z" fill="white"/>
<path opacity="0.1" d="M238.777 226.83C238.632 231.933 236.876 236.834 233.794 240.736C236.165 244.173 237.583 248.255 237.886 252.513C238.188 256.771 237.363 261.034 235.505 264.815C233.647 268.596 230.83 271.741 227.378 273.892C223.925 276.043 219.976 277.112 215.981 276.978C211.986 276.843 208.108 275.51 204.789 273.131C201.47 270.752 198.844 267.423 197.213 263.525C195.581 259.626 195.009 255.316 195.562 251.087C196.115 246.858 197.771 242.88 200.34 239.609C197.612 235.647 238.852 224.279 238.777 226.83Z" fill="white"/>
</g>
<g opacity="0.4">
<path opacity="0.2" d="M392.247 299.421C392.215 300.327 392.114 301.23 391.944 302.119C386.379 301.169 380.774 300.32 375.13 299.572C375.13 299.332 375.13 299.088 375.13 298.839C375.182 296.277 375.873 293.776 377.131 291.594C378.792 288.812 381.284 287.068 384.037 287.157C386.79 287.245 389.186 289.158 390.681 292.037C391.809 294.306 392.349 296.855 392.247 299.421Z" fill="white"/>
<path opacity="0.2" d="M392.699 284.812C392.894 278.204 389.223 272.718 384.498 272.558C379.774 272.399 375.785 277.626 375.59 284.235C375.395 290.843 379.066 296.329 383.791 296.489C388.515 296.648 392.503 291.421 392.699 284.812Z" fill="white"/>
<path opacity="0.2" d="M393.13 270.188C393.326 263.579 389.654 258.093 384.93 257.933C380.205 257.774 376.217 263.002 376.022 269.61C375.826 276.218 379.498 281.704 384.222 281.864C388.947 282.023 392.935 276.796 393.13 270.188Z" fill="white"/>
<path opacity="0.2" d="M393.566 255.563C393.762 248.955 390.09 243.468 385.366 243.309C380.641 243.149 376.653 248.377 376.457 254.985C376.262 261.593 379.933 267.08 384.658 267.239C389.382 267.399 393.371 262.171 393.566 255.563Z" fill="white"/>
<path opacity="0.2" d="M393.511 240.272C393.697 233.661 390.015 228.178 385.288 228.027C380.562 227.875 376.579 233.112 376.394 239.724C376.208 246.335 379.889 251.818 384.616 251.969C389.343 252.121 393.325 246.884 393.511 240.272Z" fill="white"/>
<path opacity="0.2" d="M356.347 139.482C355.227 137.853 354.212 136.143 353.312 134.366L375.902 131.18L351.588 130.554C349.416 125.054 348.318 119.139 348.359 113.17C348.4 107.201 349.581 101.303 351.829 95.8385L383.908 115.011L354.532 90.3764C357.503 85.2667 361.426 80.8653 366.058 77.4467C370.69 74.0281 375.931 71.6655 381.455 70.5061C386.979 69.3467 392.668 69.4153 398.166 70.7078C403.664 72.0003 408.854 74.4888 413.412 78.0184C417.971 81.548 421.8 86.0429 424.661 91.2231C427.523 96.4032 429.355 102.158 430.044 108.127C430.733 114.097 430.264 120.155 428.665 125.923C427.067 131.69 424.374 137.044 420.755 141.651C422.504 144.187 423.993 146.917 425.194 149.793L395.54 165.008L426.98 154.892C428.961 161.864 429.284 169.255 427.918 176.394C426.553 183.533 423.543 190.196 419.16 195.779C423.724 202.397 426.453 210.254 427.035 218.451C427.617 226.648 426.029 234.855 422.451 242.132C418.874 249.41 413.452 255.465 406.805 259.606C400.158 263.746 392.556 265.804 384.866 265.545C377.176 265.286 369.71 262.72 363.32 258.141C356.931 253.561 351.877 247.153 348.735 239.649C345.594 232.145 344.492 223.848 345.557 215.706C346.621 207.564 349.807 199.907 354.752 193.61C349.302 185.701 346.496 176.065 346.785 166.249C347.074 156.432 350.442 147.004 356.347 139.477V139.482Z" fill="white"/>
<path opacity="0.1" d="M428.728 169.015C428.456 178.834 425.09 188.267 419.177 195.788C423.741 202.406 426.47 210.263 427.052 218.46C427.634 226.657 426.045 234.863 422.468 242.141C418.89 249.419 413.468 255.474 406.822 259.615C400.175 263.755 392.572 265.813 384.882 265.554C377.193 265.295 369.726 262.729 363.337 258.15C356.948 253.57 351.893 247.162 348.752 239.658C345.611 232.154 344.509 223.857 345.573 215.715C346.637 207.573 349.824 199.916 354.769 193.619C349.479 185.982 428.873 164.103 428.728 169.015Z" fill="white"/>
</g>
<path d="M66.185 300.29L70.5239 300.277H76.6414L84.3762 165.332L160.975 28.0544L157.645 24.2164V14.4968L74.8049 162.151L66.185 300.29Z" fill="#5A5A5A"/>
<path opacity="0.1" d="M70.7716 300.29H76.4394L84.1926 165.312L160.975 28.0003L157.637 24.1613L78.4378 163.254L70.7716 300.29Z" fill="black"/>
<path d="M53.1895 300.924L252.318 317.535L252.488 317.548L445.2 304.629L445.345 304.62V295.749L233 291.502L55.8412 291.316H54.5465L54.4054 292.311L53.1895 300.924Z" fill="#5A5A5A"/>
<path opacity="0.3" d="M53.1895 300.924L252.318 317.535L252.488 317.548L445.2 304.629L445.345 304.457V295.935H445.175L252.318 302.955L55.8412 291.316H55.8122L55.4636 291.565L54.4054 292.311L53.1895 300.924Z" fill="black"/>
<path opacity="0.1" d="M53.1895 301.653L252.707 317.548V303.597L55.4681 292.697L54.4078 293.411L53.1895 301.653Z" fill="black"/>
<path d="M157.917 23.9272L245.631 124.74L242.919 302.07L250.37 303.034L250.495 303.052H257.945L258.837 132.354L423.082 191.104L425.852 295.708L431.847 296.427L433.879 296.672L429.177 183.849L257.481 119.301L163.336 14.4968H157.917V23.9272Z" fill="#5A5A5A"/>
<path opacity="0.1" d="M258.059 129.09L258.737 132.362L423.554 191.255L426.334 296.118L432.35 296.839L427.632 189.075L258.059 129.09Z" fill="black"/>
<path opacity="0.1" d="M157.917 23.9278L245.915 124.747L243.194 302.088L250.669 303.052L252.707 118.943L157.917 14.4968V23.9278Z" fill="black"/>
<path d="M258.823 200.089L319.017 212.918L319.038 212.922L424.466 235.4L429.292 233.306L429.276 232.938L428.961 225.652L258.885 188.458L258.823 200.089Z" fill="#5A5A5A"/>
<path opacity="0.1" d="M319.213 213.31L424.473 235.4L429.292 233.342L429.276 232.981L319.213 213.31Z" fill="black"/>
<path d="M323.036 155.323L324.661 251.135L325.501 300.29L332.902 300.025L337.56 299.856L336.112 156.709L332.902 155.566L332.199 155.323H323.036Z" fill="#5A5A5A"/>
<path opacity="0.1" d="M323.036 155.323V155.345L324.617 251.143L325.469 300.29L332.973 300.025V155.323H323.036Z" fill="black"/>
<path d="M206.571 179.865C206.996 180.109 207.403 180.389 207.787 180.701C208.242 181.121 208.65 181.594 209.004 182.111C210.744 184.49 212.35 187.255 212.18 190.255C212.184 190.692 212.106 191.125 211.95 191.53C211.795 191.934 211.566 192.302 211.275 192.613C210.558 193.26 209.527 193.29 208.586 193.29C207.564 193.29 206.49 193.29 205.605 192.733C204.721 192.176 203.983 191.091 202.937 191.117C202.789 191.143 202.638 191.143 202.491 191.117C202.13 190.993 202.057 190.491 201.821 190.174C201.416 189.604 200.56 189.745 199.923 189.994C199.287 190.243 198.581 190.616 197.952 190.328C197.587 190.125 197.289 189.81 197.096 189.424C195.592 186.852 195.271 183.761 194.987 180.774C194.813 178.956 193.483 172.758 197.153 174.168C198.776 174.785 200.292 176.02 201.769 176.924L206.571 179.865Z" fill="black"/>
<path d="M203.002 180.618C203.33 180.886 203.728 181.022 204.132 181.004C204.536 180.985 204.923 180.814 205.231 180.516C205.836 179.895 206.221 179.045 206.315 178.125C206.721 177.982 206.928 178.586 207.188 178.956C207.643 179.584 208.569 179.574 208.983 180.244C209.271 180.706 209.206 181.347 209.409 181.869C209.673 182.543 210.327 182.894 210.774 183.439C211.195 184.034 211.5 184.725 211.667 185.465L212.333 187.737C212.651 188.681 212.856 189.671 212.942 190.678C212.984 191.181 212.937 191.689 212.805 192.172C212.672 192.654 212.457 193.102 212.17 193.489C211.277 194.583 209.811 194.699 208.516 194.666C208.083 194.677 207.652 194.619 207.233 194.496C206.084 194.089 205.349 192.774 205.044 191.449C204.74 190.124 204.772 188.734 204.594 187.377C204.401 186.043 204.06 184.743 203.579 183.508C203.221 182.548 202.239 181.116 202.255 180.096C202.547 180.096 202.758 180.401 203.002 180.618Z" fill="black"/>
<path d="M204.091 176.265C203.897 175.631 203.784 174.972 203.755 174.305C203.755 172.965 204.323 171.706 204.895 170.51L200.154 171.202C199.582 171.287 198.943 171.412 198.619 171.925C198.497 172.179 198.432 172.462 198.432 172.749C198.432 173.036 198.497 173.318 198.619 173.573C198.857 174.082 199.046 174.616 199.184 175.167C199.194 175.648 199.246 176.128 199.337 176.6C199.485 176.946 199.691 177.26 199.947 177.524C201.303 179.14 202.319 181.047 203.332 182.935C203.303 182.882 206.19 180.475 206.073 179.689C206.007 179.243 205.173 178.707 204.908 178.279C204.541 177.656 204.265 176.977 204.091 176.265Z" fill="#BE6F72"/>
<path d="M245.063 158.774V163.161L174.884 177.814L171.243 180.174H158.682V177.702L227.634 159.87L245.063 158.774Z" fill="#5A5A5A"/>
<path opacity="0.1" d="M245.063 163.607L174.884 177.876L171.243 180.174H158.682L228.145 164.678L245.063 163.607Z" fill="black"/>
<path d="M188.539 283.083C187.769 282.066 186.706 281.363 185.523 281.089C184.34 280.815 183.107 280.985 182.024 281.573C181.792 281.692 181.588 281.866 181.425 282.082C181.016 282.708 181.278 283.57 181.315 284.343C181.409 286.229 180.032 287.762 178.795 289.08C178.131 289.786 177.455 290.542 177.156 291.502C176.857 292.463 177.078 293.683 177.881 294.184C178.232 294.375 178.613 294.491 179.004 294.523C180.314 294.802 181.657 294.843 182.978 294.644C184.286 294.371 185.568 293.562 186.134 292.249C186.243 291.892 186.423 291.567 186.662 291.297C187.383 290.676 188.49 291.404 189.309 290.962C189.985 290.595 190.014 290.019 190.022 289.259C190.047 287.159 189.76 284.781 188.539 283.083Z" fill="white"/>
<path d="M198.564 282.775C199.049 284.203 199.116 285.759 199.179 287.284C199.215 288.165 199.238 289.108 198.812 289.853C198.386 290.598 197.554 290.99 196.757 291.175C195.112 291.555 193.207 291.198 192.146 289.739C191.333 288.624 191.163 287.094 191.313 285.649C191.439 284.463 191.708 283.075 190.946 282.233C190.749 282.008 190.493 281.849 190.311 281.607C189.917 281.069 189.98 280.258 190.193 279.597C190.47 278.965 190.678 278.298 190.812 277.609C190.844 277.283 196.154 277.839 196.643 278.107C197.309 278.473 197.207 279.086 197.408 279.826C197.688 280.858 198.225 281.788 198.564 282.775Z" fill="white"/>
<path d="M199.547 218.829C200.65 219.591 201.076 221.088 201.247 222.479C201.719 226.289 200.892 230.139 200.829 233.985C200.771 239.372 202.233 244.858 200.984 250.076C200.236 253.196 200.871 256.761 200.17 259.911C199.961 260.847 199.577 261.729 199.376 262.665C198.959 264.693 199.397 266.814 199.986 268.797C200.174 269.331 200.293 269.89 200.341 270.459C200.313 271.334 200.104 272.192 199.731 272.972L197.225 279.296C196.946 280.004 195.843 280.12 195.137 280.214C193.809 280.383 192.327 280.503 191.27 279.625C190.214 278.748 189.959 277.277 189.796 275.904C189.484 273.27 189.344 270.615 189.378 267.959C189.424 267.266 189.366 266.57 189.207 265.896C188.977 265.134 188.472 264.474 188.334 263.668C188.159 262.625 188.656 261.6 188.84 260.548C188.966 259.588 188.952 258.612 188.798 257.656C188.635 256.23 188.447 254.804 188.234 253.387C187.933 251.404 188.364 249.448 188.652 247.46C188.923 245.593 188.577 243.69 188.234 241.837C188.264 243.341 188.088 244.842 187.712 246.293C187.491 247.001 187.173 247.679 186.981 248.401C186.125 251.64 187.95 255.04 187.691 258.396C187.57 259.965 186.994 261.515 187.157 263.062C187.269 264.194 187.762 265.232 188.1 266.31C188.439 267.389 188.614 268.623 188.1 269.63C186.743 272.366 187.758 276.087 188.973 278.895C189.22 279.393 189.435 279.908 189.616 280.437C189.976 281.702 189.675 283.061 189.771 284.38C189.421 284.441 189.063 284.417 188.724 284.308C188.384 284.199 188.072 284.009 187.812 283.752C187.629 283.547 187.478 283.306 187.299 283.092C186.797 282.582 186.203 282.186 185.553 281.929C185.171 281.701 184.737 281.595 184.3 281.622C183.841 281.759 183.428 282.032 183.11 282.411C182.697 282.798 182.259 283.154 181.799 283.476C181.603 283.636 181.374 283.745 181.13 283.792C181.008 283.812 180.883 283.791 180.773 283.731C180.663 283.671 180.573 283.575 180.516 283.458C180.49 283.383 180.475 283.305 180.471 283.226C180.315 281.881 180.233 280.527 180.224 279.171C180.224 276.84 177.61 275.236 177.28 272.932C177.017 271.074 177.505 269.18 177.343 267.308C177.263 266.346 177.013 265.401 177.029 264.439C177.029 263.815 177.163 263.204 177.209 262.585C177.247 261.897 177.237 261.208 177.18 260.522L177.05 258.369C176.925 256.244 176.787 254.073 176.002 252.131C175.071 249.862 174.52 247.437 174.373 244.965C174.29 243.405 174.344 241.846 174.177 240.281C174.027 238.869 173.693 237.465 173.789 236.048C173.868 234.952 174.206 233.891 174.286 232.795C174.448 230.687 173.697 228.637 173.108 226.619C172.519 224.6 172.085 222.363 172.857 220.416C172.968 220.096 173.152 219.811 173.392 219.587C173.688 219.378 174.025 219.243 174.377 219.195C181.543 217.588 188.887 217.089 196.186 217.711C197.375 217.783 198.53 218.167 199.547 218.829Z" fill="black"/>
<path d="M176.264 171.2C180.063 171.2 183.144 168.109 183.144 164.297C183.144 160.484 180.063 157.394 176.264 157.394C172.464 157.394 169.384 160.484 169.384 164.297C169.384 168.109 172.464 171.2 176.264 171.2Z" fill="#BE6F72"/>
<path d="M175.013 173.647C175.109 174.071 175.109 174.516 175.013 174.94C174.908 175.237 174.761 175.513 174.576 175.756C173.931 176.684 173.217 177.549 172.442 178.344C172.837 179.327 173.548 180.109 174.435 180.537C175.316 180.954 176.239 181.249 177.185 181.413C177.657 181.551 178.149 181.589 178.633 181.524C179.08 181.399 179.503 181.185 179.882 180.894L183.585 178.422C184.144 178.085 184.661 177.669 185.124 177.184C185.804 176.407 186.188 175.367 186.198 174.282C186.215 174.088 186.168 173.893 186.065 173.735C185.923 173.597 185.745 173.514 185.557 173.499C184.255 173.179 183.227 172.001 182.644 170.666C182.118 169.297 181.777 167.848 181.633 166.368L177.685 168.686C177.098 169.034 176.515 169.381 175.908 169.683C175.521 169.878 174.739 170.04 174.464 170.434C173.94 171.162 174.876 172.771 175.013 173.647Z" fill="#BE6F72"/>
<path d="M172.279 177.047C171.724 177.532 171.291 178.156 171.019 178.863C170.764 179.739 171.019 180.662 171.249 181.528C172.326 185.222 173.149 188.994 173.711 192.815C174.056 195.44 174.183 198.105 174.351 200.762C174.696 206.179 175.197 214.818 175.866 220.201C178.328 220.319 180.729 219.553 183.171 219.273C187.735 218.756 192.434 219.938 196.904 218.835C195.82 214.271 194.737 206.477 193.653 201.917C193.174 200.12 192.841 198.283 192.66 196.425C192.565 195.09 192.623 193.751 192.639 192.408C192.676 189.782 192.541 187.156 192.405 184.53C192.249 181.467 192.094 178.404 191.412 175.406C191.365 175.024 191.197 174.671 190.936 174.404C190.526 174.085 189.992 174.198 189.504 174.268C188.008 174.471 186.495 174.088 185.244 173.192C184.702 172.798 183.976 172.317 183.471 172.754C183.255 173.018 183.113 173.341 183.06 173.686C182.837 174.305 182.492 174.867 182.049 175.332C181.606 175.798 181.075 176.157 180.491 176.386C179.322 176.838 178.097 177.106 176.855 177.183C176.475 177.27 176.079 177.222 175.726 177.047C175.143 176.666 175.102 175.297 174.368 175.205C173.723 175.126 172.714 176.605 172.279 177.047Z" fill="black"/>
<path d="M181.898 187.563C180.361 186.006 179.686 183.747 178.566 181.829C177.803 180.538 176.829 179.403 175.689 178.476C175.115 178.075 174.59 177.602 174.123 177.069C173.727 176.552 173.427 175.864 172.828 175.666C172.58 175.609 172.323 175.616 172.078 175.688C171.834 175.759 171.609 175.892 171.424 176.076C171.057 176.447 170.71 176.838 170.383 177.249C168.618 179.186 165.515 179.455 164.116 181.696C163.739 182.171 163.482 182.741 163.371 183.35C162.968 186.612 163.764 189.913 165.594 192.57C165.949 193.186 166.493 193.654 167.135 193.894C167.048 194.716 167.151 195.549 167.435 196.32C168.206 199.112 169.153 201.846 170.271 204.503C170.004 205.543 169.817 206.603 169.713 207.675C169.421 210.37 169.692 213.106 169.417 215.805C169.192 218.011 168.584 220.159 168.564 222.369C168.564 222.722 168.593 223.141 168.88 223.322C169.033 223.406 169.204 223.444 169.376 223.433L174.498 223.596C177.471 223.688 180.473 223.781 183.401 223.199C183.791 223.138 184.169 223.011 184.521 222.824C185.512 222.237 185.841 220.914 185.999 219.736C186.206 218.208 186.288 216.664 186.245 215.122C186.865 217.199 187.603 219.348 189.476 220.248C190.468 220.724 191.6 220.689 192.687 220.658C195.03 220.547 197.364 220.293 199.679 219.895C199.822 219.913 199.966 219.897 200.102 219.845C200.237 219.794 200.359 219.71 200.458 219.6C200.558 219.49 200.631 219.356 200.673 219.211C200.715 219.065 200.724 218.911 200.699 218.761L200.724 216.352C200.774 211.46 199.629 206.784 199.183 201.914C199.042 200.379 199.054 198.826 198.7 197.321C198.555 196.691 198.342 196.073 198.213 195.438C198.102 194.816 198.032 194.186 198.005 193.554L197.68 188.702C197.526 186.456 197.305 184.29 197.143 182.049C197.054 179.867 196.755 177.7 196.252 175.582C195.889 174.259 195.136 172.759 193.832 172.595C193.137 172.512 192.462 172.834 191.8 173.059C190.173 173.601 188.426 173.594 186.803 173.037C186.302 172.827 185.779 172.679 185.246 172.595C184.977 172.557 184.704 172.594 184.453 172.704C184.203 172.814 183.985 172.993 183.821 173.222C183.66 173.566 183.584 173.949 183.601 174.334C183.405 178.741 183.043 183.28 181.898 187.563Z" fill="white"/>
<path d="M175.469 188.03C173.57 185.89 171.621 183.709 169.173 182.348C168.209 181.811 167.113 181.405 166.045 181.608C164.978 181.811 163.985 182.802 164.035 183.96C164.068 184.678 164.476 185.313 164.603 186.017C164.752 186.81 164.537 187.656 164.768 188.422C164.956 188.928 165.236 189.387 165.592 189.775L168.51 193.471C169.746 195.012 170.982 196.576 172.573 197.642C174.163 198.708 176.223 199.206 177.971 198.448C179.214 197.831 180.247 196.816 180.929 195.545C181.654 194.312 182.165 192.964 182.845 191.691C183.903 189.657 185.3 187.846 186.966 186.348C186.109 186.11 185.033 185.775 184.494 185.026C184.34 184.788 184.209 184.534 184.102 184.269L183.435 182.727C183.208 182.714 182.981 182.752 182.768 182.837C182.555 182.923 182.361 183.055 182.198 183.225C181.912 183.578 181.605 183.912 181.279 184.224C180.698 184.691 179.911 184.819 179.384 185.352C179.18 185.581 178.995 185.829 178.832 186.092C178.433 186.653 177.927 187.116 177.347 187.45C176.767 187.784 176.127 187.982 175.469 188.03Z" fill="black"/>
<path d="M187.493 178.488C188.911 175.636 188.846 172.215 189.251 168.993C189.294 168.14 189.566 167.32 190.031 166.636C190.848 165.618 192.291 165.604 193.525 165.735C193.889 165.78 194.343 165.969 194.322 166.37C194.293 166.514 194.23 166.647 194.138 166.754C192.942 168.456 192.239 170.516 192.119 172.666C192.761 173.157 193.754 172.148 194.371 172.666C194.78 173.044 194.592 173.793 194.347 174.333C193.777 175.586 193.19 176.83 192.585 178.065C192.102 179.153 191.473 180.154 190.718 181.034C190.199 181.584 189.59 182.017 189.063 182.558C187.837 183.824 187.097 185.613 185.83 186.848C185.723 186.976 185.578 187.057 185.421 187.077C185.26 187.065 185.108 186.99 184.992 186.866C184.359 186.298 183.835 185.598 183.448 184.806C182.965 183.824 183.039 183.535 183.799 182.841C185.221 181.602 186.607 180.273 187.493 178.488Z" fill="#BE6F72"/>
<path d="M173.177 186.096C173.42 186.279 173.721 186.487 173.989 186.334C174.098 186.253 174.191 186.143 174.261 186.012C174.725 185.258 175.112 184.438 175.414 183.57C175.466 183.447 175.495 183.312 175.499 183.174C175.499 182.858 175.268 182.625 175.053 182.442C173.9 181.547 172.66 180.83 171.362 180.306C170.29 179.812 169.169 179.382 168.032 179.505C167.605 179.54 167.188 179.68 166.806 179.916C166.424 180.152 166.086 180.48 165.811 180.88C164.999 182.151 166.359 182.536 167.212 182.996C169.185 184.089 171.321 184.722 173.177 186.096Z" fill="white"/>
<path opacity="0.1" d="M171.684 194.082C171.669 194.188 171.678 194.297 171.712 194.4C171.745 194.502 171.801 194.595 171.876 194.671C172.008 194.007 171.835 193.305 171.971 192.637C172.172 191.631 173.124 190.874 173.206 189.863C171.461 189.513 171.698 192.997 171.684 194.082Z" fill="black"/>
<path opacity="0.2" d="M245.063 158.774V163.19L227.997 164.297L227.481 159.877L245.063 158.774Z" fill="black"/>
<path d="M169.883 165.473C170.937 164.585 170.327 162.723 171.04 161.53C171.455 160.878 172.157 160.535 172.846 160.243C173.677 159.841 174.568 159.586 175.481 159.488C175.938 159.443 176.399 159.504 176.83 159.668C177.261 159.833 177.651 160.095 177.97 160.436C178.24 160.754 178.423 161.14 178.676 161.47C178.989 161.855 179.398 162.146 179.858 162.311C180.319 162.475 180.813 162.508 181.29 162.405C181.842 162.277 182.415 161.843 182.378 161.26C182.315 160.905 182.14 160.582 181.88 160.342L180.693 158.982C179.344 157.437 177.846 155.799 175.867 155.413C174.489 155.142 173.078 155.524 171.75 155.983C171.215 156.168 170.613 156.442 170.464 157.004C170.364 157.39 170.513 157.811 170.426 158.201C170.256 158.978 169.293 159.239 168.845 159.891C168.397 160.543 168.534 161.316 168.405 162.036C168.277 162.757 167.903 163.461 167.858 164.207C167.828 164.658 168.048 165.494 168.538 165.657C169.028 165.82 169.58 164.936 169.883 165.473Z" fill="black"/>
<path d="M182.379 160.813C182.028 158.904 181.271 157.101 180.164 155.537C179.179 154.076 177.809 152.942 176.22 152.274C175.426 151.951 174.571 151.819 173.721 151.889C172.87 151.959 172.046 152.229 171.31 152.678C170.218 153.49 169.367 154.608 168.857 155.901C167.779 158.322 167.379 161.281 168.632 163.606C169.132 162.973 169.99 163.259 170.748 163.029C171.698 162.747 172.501 162.088 173.405 161.676C176.133 160.422 179.464 161.437 182.379 160.813Z" fill="#535250"/>
<path opacity="0.1" d="M169.491 160.778C169.403 160.112 169.346 159.337 169.835 158.863C169.859 158.834 169.89 158.811 169.925 158.796C169.96 158.78 169.999 158.773 170.037 158.774C170.072 158.785 170.103 158.802 170.13 158.825C170.157 158.848 170.179 158.876 170.194 158.908C170.477 159.34 170.717 159.796 170.913 160.271C170.628 160.207 170.33 160.228 170.057 160.33C169.785 160.433 169.55 160.612 169.384 160.845" fill="black"/>
<path opacity="0.1" d="M178.778 158.545L178.609 156.726C178.582 156.577 178.593 156.422 178.642 156.278C178.713 156.158 178.822 156.071 178.949 156.033C179.076 155.996 179.212 156.01 179.329 156.074C179.561 156.213 179.752 156.42 179.88 156.67C180.272 157.321 180.598 158.017 180.85 158.744C180.092 158.586 179.312 158.596 178.557 158.774" fill="black"/>
<path opacity="0.1" d="M182.379 222.974V226.242L179.571 226.426H164.797V222.974H182.379Z" fill="black"/>
<path d="M182.379 222.625V226.426H164.61L117.402 163.144V160.155H127.299L182.379 222.625Z" fill="#5A5A5A"/>
<path opacity="0.1" d="M182.379 222.625V226.426H164.61L117.402 163.144V160.155H127.299L182.379 222.625Z" fill="black"/>
<path opacity="0.1" d="M182.379 222.625V226.426H164.61L117.402 163.144V160.155L164.865 222.625H182.379Z" fill="black"/>
<path d="M123.154 286.725C123.186 286.905 123.182 287.09 123.143 287.268C123.104 287.447 123.031 287.615 122.929 287.762C122.826 287.909 122.696 288.031 122.547 288.123C122.397 288.214 122.232 288.271 122.061 288.291C120.9 288.708 119.668 289.121 118.846 290.066C118.023 291.011 117.861 292.764 118.846 293.531C119.349 293.854 119.928 294.022 120.516 294.015C122.407 294.153 124.378 294.126 126.094 293.274C127.321 292.671 128.478 291.641 129.826 291.734C130.523 291.779 131.266 292.125 131.889 291.788C132.511 291.45 132.686 290.51 132.69 289.724C132.706 288.085 132.473 286.454 132.001 284.893C131.939 284.68 129.283 284.515 128.966 284.449L125.747 284.005C125.138 283.921 123.822 283.433 123.342 283.974C122.862 284.515 123.154 286.082 123.154 286.725Z" fill="white"/>
<path d="M142.741 275.19C142.878 275.997 143.1 276.784 143.404 277.538C143.852 278.757 144.427 280.052 145.526 280.643C146.524 281.176 147.749 280.984 148.764 280.477C149.188 280.29 149.559 279.989 149.842 279.603C150.17 278.994 150.316 278.292 150.262 277.591C150.262 275.857 150.165 274.065 149.423 272.524C148.785 271.179 147.674 270.023 147.657 268.535L143.836 269.324C143.631 269.345 143.436 269.427 143.274 269.562C143.152 269.698 143.068 269.867 143.03 270.05C142.622 271.727 142.524 273.473 142.741 275.19Z" fill="white"/>
<path d="M97.5953 233.694C97.443 235.111 97.5071 236.629 98.1804 237.853C98.8536 239.076 100.272 239.886 101.499 239.398C101.561 239.38 101.62 239.349 101.672 239.306C101.724 239.262 101.767 239.208 101.799 239.147C101.832 238.998 101.813 238.841 101.747 238.707C101.206 237.12 101.25 235.364 101.871 233.813C101.951 233.61 102.124 233.373 102.312 233.452C102.391 233.496 102.454 233.567 102.492 233.654C102.686 234.023 102.784 234.443 102.773 234.869C102.716 235.255 102.706 235.647 102.741 236.035C102.817 236.414 103.186 236.77 103.506 236.607C103.599 236.545 103.679 236.462 103.742 236.365C103.805 236.267 103.848 236.157 103.871 236.04C104.765 233.201 104.36 230.099 103.951 227.128C103.955 227.06 103.944 226.991 103.921 226.928C103.898 226.865 103.862 226.808 103.817 226.761C103.771 226.715 103.717 226.68 103.658 226.658C103.599 226.637 103.536 226.631 103.474 226.639C101.583 226.433 100.549 225.935 99.4668 227.867C98.537 229.496 97.5953 231.736 97.5953 233.694Z" fill="white"/>
<path d="M120.128 225.63C119.55 228.214 118.968 230.83 118.931 233.485C118.941 235.139 119.057 236.79 119.278 238.427L119.711 242.273C119.86 243.569 120.005 244.861 120.215 246.145C120.35 246.806 120.423 247.48 120.434 248.156C120.394 248.823 120.295 249.485 120.141 250.132C119.881 251.492 119.736 252.874 119.707 254.262C119.662 256.482 119.918 258.702 120.079 260.922C120.4 265.347 120.352 269.793 119.934 274.208C119.768 275.4 120.008 276.616 120.612 277.632C120.856 277.952 121.058 278.308 121.21 278.689C121.52 279.705 120.797 280.722 120.612 281.766C120.493 282.579 120.679 283.411 121.13 284.077C121.58 284.743 122.258 285.189 123.015 285.318C126.318 285.74 129.712 285.549 132.689 287.174C133.003 286.188 132.317 285.069 132.631 284.066C132.829 283.444 133.374 283.04 133.746 282.516C134.245 281.718 134.494 280.769 134.456 279.808C134.471 278.553 134.263 277.307 133.845 276.135C133.494 275.158 132.99 274.195 133.019 273.147C133.019 272.632 133.189 272.09 132.995 271.615C132.861 271.342 132.681 271.099 132.462 270.9C131.228 269.446 130.469 267.598 130.302 265.638C130.141 263.693 130.2 261.734 130.476 259.803C130.678 257.965 130.951 256.025 132.037 254.59C131.533 250.241 131.829 245.828 132.908 241.602C133.015 241.211 133.184 240.758 133.556 240.665C133.704 240.649 133.853 240.671 133.991 240.73C134.129 240.789 134.252 240.882 134.349 241.003C134.997 241.655 135.307 242.601 135.588 243.507C135.897 244.488 136.211 245.536 135.976 246.54C135.877 246.984 135.678 247.375 135.563 247.801C135.312 248.658 135.356 249.583 135.687 250.407C135.848 250.709 135.949 251.043 135.984 251.389C135.946 251.686 135.862 251.974 135.736 252.241C135.583 252.767 135.534 253.321 135.593 253.868C135.652 254.415 135.818 254.943 136.079 255.416C136.605 256.359 137.255 257.216 138.007 257.961C137.648 259.665 137.741 261.444 138.276 263.094C138.314 263.168 138.339 263.25 138.348 263.334C138.357 263.419 138.351 263.505 138.329 263.587C138.255 263.755 138.065 263.818 137.916 263.937C137.503 264.302 137.759 264.99 138.036 265.465C138.794 266.769 139.631 268.018 140.542 269.204C141.368 270.265 141.294 272.312 142.524 272.694C143.041 272.814 143.576 272.814 144.093 272.694C145.307 272.494 146.662 272.117 147.256 270.962C147.5 270.487 147.599 269.91 147.979 269.555C148.359 269.199 148.85 269.137 149.061 268.711C149.271 268.285 149.036 267.725 149.106 267.232C149.176 266.739 149.577 266.344 149.705 265.825C150.01 264.626 148.71 263.64 148.532 262.414C148.276 260.638 150.357 259.306 150.27 257.53C150.089 253.671 149.973 249.795 149.787 245.936C149.554 242.479 149.521 239.011 149.688 235.55C149.833 233.396 150.101 231.14 149.366 229.138C148.309 226.314 145.394 224.729 142.574 224.427C139.754 224.125 136.942 224.844 134.146 225.315C129.507 226.084 124.794 226.19 120.128 225.63Z" fill="black"/>
<path d="M128.486 183.626C132.075 183.626 134.984 180.381 134.984 176.377C134.984 172.374 132.075 169.129 128.486 169.129C124.898 169.129 121.989 172.374 121.989 176.377C121.989 180.381 124.898 183.626 128.486 183.626Z" fill="#FBBEBE"/>
<path d="M126.209 184.913C125.99 185.508 125.62 186.013 125.149 186.359C124.679 186.706 124.129 186.878 123.572 186.854C123.338 187.982 123.899 189.12 124.541 190.009C125.875 191.815 127.598 193.174 129.534 193.947C131.469 194.719 133.546 194.877 135.552 194.404C136.332 194.241 137.072 193.882 137.72 193.351C138.594 192.502 139.181 191.319 139.376 190.013C139.562 188.717 139.615 187.399 139.534 186.088C139.557 185.829 139.493 185.57 139.356 185.364C139.195 185.218 138.995 185.142 138.791 185.148C137.426 185.007 136 184.946 134.8 184.165C133.601 183.385 132.749 181.622 133.326 180.174C133.233 180.4 130.874 180.508 130.563 180.555C129.59 180.715 128.617 180.893 127.647 181.1C127.182 181.13 126.721 181.231 126.278 181.401C125.692 181.754 125.911 181.58 126.048 182.219C126.254 183.197 126.557 183.897 126.209 184.913Z" fill="#FBBEBE"/>
<path d="M130.963 188.81C130.07 188.821 129.18 188.715 128.311 188.495C127.434 188.275 126.661 187.72 126.135 186.934C125.829 186.436 125.63 185.809 125.142 185.529C124.344 185.084 123.434 185.836 122.797 186.525C122.217 187.205 121.544 187.786 120.803 188.25C119.917 188.753 118.883 188.931 118.048 189.522C117.395 190.052 116.835 190.702 116.393 191.443L110.531 200.025C108.177 203.475 106.13 207.179 104.032 210.821C102.216 213.973 101.265 217.602 99.8954 221.003C99.787 221.211 99.7421 221.451 99.7672 221.688C99.8168 221.919 100.077 222.106 100.259 221.973C99.6431 222.631 100.185 223.751 100.04 224.676C99.8756 225.323 99.5323 225.902 99.0557 226.335C99.9662 226.207 100.891 226.254 101.786 226.472C102.711 226.754 103.585 227.206 104.367 227.806C104.868 227.722 104.822 226.766 105.195 226.41C105.418 226.201 105.749 226.228 106.043 226.166C107.147 225.934 107.586 224.507 108.434 223.702C109.141 223.031 110.142 222.813 110.891 222.182C112.107 221.154 112.368 219.327 113.005 217.811C113.547 216.526 114.399 215.405 114.875 214.089C115.185 213.235 115.334 212.31 115.777 211.523C116.484 210.252 117.816 209.576 119.086 208.967C119.889 208.58 120.741 208.179 121.605 208.242C121.56 210.309 121.316 212.346 121.734 214.365C121.878 215.076 122.081 215.77 122.255 216.477C123.045 219.66 123.231 222.978 123.268 226.259C125.169 225.792 127.11 225.541 129.06 225.512C130.595 225.463 132.125 225.677 133.66 225.645C135.48 225.61 137.28 225.232 139.1 225.098C140.92 224.965 142.823 225.098 144.432 225.988C144.301 223.17 144.375 220.345 144.651 217.539L145.09 213.12C145.189 211.835 145.373 210.561 145.64 209.304C145.88 208.291 146.227 207.312 146.492 206.303C147.423 202.746 147.253 198.949 147.076 195.245C146.985 193.341 146.302 191.469 145.499 189.775C145.209 189.146 144.877 188.54 144.507 187.961C143.537 186.525 142.244 185.376 140.75 184.622C139.255 183.868 137.608 183.533 135.96 183.648C135.75 183.655 135.542 183.703 135.348 183.79C134.999 184.031 134.726 184.38 134.566 184.791C133.71 186.444 132.468 187.83 130.963 188.81Z" fill="black"/>
<path d="M122.555 179.168C122.747 178.732 123.264 178.571 123.581 178.223C124.187 177.561 123.914 176.503 124.008 175.61C124.162 174.304 125.226 173.211 126.443 172.745C127.685 172.339 129.006 172.254 130.289 172.497C130.906 172.543 131.502 172.745 132.023 173.085C132.245 173.25 132.451 173.464 132.66 173.616C133.042 173.851 133.498 173.925 133.933 173.822C134.367 173.718 134.744 173.446 134.984 173.063C133.472 171.208 131.797 169.249 129.498 168.679C128.71 168.515 127.906 168.437 127.101 168.448C126.037 168.426 124.939 168.409 123.957 168.822C122.619 169.384 121.679 170.677 121.196 172.07C120.774 173.483 120.548 174.948 120.526 176.425C120.438 177.409 120.438 178.4 120.526 179.385C120.691 180.73 121.181 182.012 121.953 183.117C122.057 183.288 122.205 183.428 122.38 183.522C124.328 184.392 122.397 179.529 122.555 179.168Z" fill="black"/>
<path d="M134.984 171.626C134.756 169.576 133.36 167.883 131.877 166.52C130.682 165.339 129.258 164.441 127.703 163.887C126.137 163.404 124.334 163.508 122.992 164.488C121.912 165.275 121.227 166.529 120.699 167.791C120.006 169.281 119.663 170.922 119.698 172.579C119.802 174.224 120.566 175.891 121.929 176.723C122.419 175.965 123.27 175.574 124.089 175.265C127.655 173.847 131.292 172.632 134.984 171.626Z" fill="#535250"/>
<path opacity="0.1" d="M122.419 170.51C122.545 170.51 122.628 170.698 122.691 170.853C123.013 171.577 123.29 172.342 123.518 173.137C123.055 173.28 122.261 173.44 122.031 172.852C121.909 172.555 122.055 170.481 122.419 170.51Z" fill="black"/>
<path opacity="0.1" d="M131.431 169.794C131.307 169.889 131.163 169.695 131.163 169.554V167.946C131.159 167.902 131.172 167.857 131.199 167.818C131.22 167.798 131.246 167.782 131.275 167.771C131.305 167.76 131.336 167.753 131.369 167.752C131.786 167.714 132.131 168 132.399 168.274C132.806 168.717 133.159 169.19 133.455 169.686L131.276 169.632" fill="black"/>
<path d="M153.432 198.276C153.809 197.895 154.21 197.544 154.634 197.226C155.767 196.42 157.136 196.102 158.408 195.588C159.679 195.074 160.971 194.242 161.466 192.891C161.714 192.047 161.794 191.157 161.703 190.277C161.715 189.909 161.654 189.542 161.523 189.201C161.368 188.9 161.146 188.643 160.877 188.452C159.152 187.093 156.838 186.984 154.696 187.123C149.973 187.435 145.343 188.667 141.037 190.756C140.809 190.837 140.609 190.989 140.464 191.192C140.381 191.381 140.343 191.589 140.354 191.798C140.278 193.082 140.435 194.371 140.816 195.592C141.38 197.143 142.541 198.393 143.028 199.975C143.248 200.685 143.322 201.438 143.514 202.153C143.672 202.891 144.081 203.54 144.663 203.974C146.278 205.002 147.803 203.621 148.923 202.549L153.432 198.276Z" fill="black"/>
<path d="M132.196 204.308L130.103 199.356C129.796 198.67 129.532 197.962 129.311 197.238C129.071 196.374 128.956 195.479 128.733 194.61C127.998 191.718 126.144 189.31 125.24 186.476C125.183 186.22 125.066 185.984 124.901 185.791C124.769 185.689 124.619 185.621 124.459 185.59C124.3 185.559 124.137 185.566 123.981 185.612C122.717 185.849 121.731 186.892 120.575 187.483C120.038 187.752 119.46 187.931 118.923 188.24C118.655 188.377 118.417 188.576 118.226 188.823C118.036 189.069 117.896 189.357 117.817 189.668C117.689 190.353 118.003 191.011 118.267 191.678C119.39 194.427 119.646 197.498 119.695 200.507C119.733 202.53 119.638 204.701 118.535 206.327C116.417 209.461 117.772 214.063 118.564 217.855C118.659 218.303 118.771 218.786 118.837 219.261C118.907 219.855 118.938 220.453 118.932 221.051C118.932 223.062 118.828 225.134 118.052 226.957C118.819 227.399 119.663 227.658 120.529 227.718C122.927 228.049 125.334 228.282 127.75 228.416C128.507 228.493 129.271 228.451 130.017 228.291C130.902 228.031 131.683 227.459 132.236 226.664C132.788 225.87 133.081 224.898 133.067 223.903C133.2 225.143 133.443 226.491 134.273 227.351C135.103 228.21 136.312 228.34 137.44 228.407C140.62 228.59 143.81 228.493 146.976 228.116C147.178 228.106 147.377 228.056 147.562 227.968C148.174 227.637 148.207 226.724 148.157 225.99C148.066 224.615 147.971 223.241 147.818 221.875C147.689 221.005 147.623 220.125 147.62 219.243C147.683 218.336 147.821 217.437 148.033 216.557C148.586 213.763 149.024 210.911 148.838 208.05C148.765 207.353 148.739 206.652 148.76 205.951C148.867 204.37 149.635 202.866 149.49 201.295C149.078 196.674 148.743 191.933 147.554 187.474C147.34 186.677 147.067 185.822 146.427 185.365C145.601 184.765 144.441 185.079 143.496 184.698C143.052 184.474 142.631 184.203 142.237 183.888C141.381 183.308 140.401 182.981 139.392 182.939C138.633 182.907 137.786 183.091 137.328 183.754C137.116 184.127 136.975 184.542 136.915 184.976C136.317 187.707 135.615 190.406 134.913 193.106L134.24 195.694L132.436 202.642C132.258 203.381 132.378 203.609 132.196 204.308Z" fill="white"/>
<path d="M142.922 177.413L183.144 222.594V226.426H165.21L134.984 184.258" fill="#5A5A5A"/>
<path opacity="0.1" d="M142.922 177.413L183.144 222.594V226.426H165.21L134.984 184.258" fill="black"/>
<path opacity="0.1" d="M135.625 183.626L135.754 183.675L165.468 222.591H183.144V226.426H165.21L134.984 184.222L135.625 183.626Z" fill="black"/>
<path d="M139.971 184.899C138.57 185.618 137.012 186.539 136.592 188.268C136.509 188.571 136.491 188.894 136.54 189.207C136.642 189.576 136.838 189.899 137.1 190.135C137.362 190.371 137.68 190.508 138.01 190.527C138.669 190.546 139.324 190.405 139.935 190.114L148.204 186.91C148.428 186.825 148.684 186.698 148.74 186.44C148.755 186.277 148.727 186.114 148.66 185.97C148.404 185.237 148.152 183.738 147.615 183.226C147.175 182.813 146.302 182.959 145.769 182.968C143.719 182.987 141.793 183.959 139.971 184.899Z" fill="white"/>
<path d="M147.536 187.083C148.995 187.078 150.446 187.307 151.835 187.76C153.23 188.22 154.466 189.078 155.396 190.231C155.666 190.553 155.859 190.936 155.958 191.347C156.041 191.773 157.409 192.029 157.107 192.319C158.025 192.17 157.807 192.608 158.738 192.6C159.669 192.591 160.676 192.348 161.234 191.594C161.621 190.975 161.794 190.242 161.724 189.511C161.737 189.005 161.642 188.503 161.448 188.037C161.028 187.142 160.064 186.661 159.174 186.248L151.684 182.767C151.249 182.532 150.783 182.364 150.3 182.268C149.893 182.229 149.484 182.239 149.079 182.298L145.686 182.694C146.428 183.182 147.032 183.858 147.439 184.655C147.846 185.452 148.041 186.343 148.006 187.24" fill="black"/>
</svg>
