<svg width="80" height="50" viewBox="0 0 80 50" fill="none" xmlns="http://www.w3.org/2000/svg">
<path d="M41.3923 19.7018C41.2847 18.7537 42.0792 17.9352 43.0271 18.0448C43.6595 18.1179 44.1612 18.5969 44.3228 19.2126C44.6281 20.376 45.0226 21.1797 45.5064 21.6238C46.1598 22.2281 47.2489 22.5303 48.7737 22.5303L70.7735 22.5869C71.9352 22.5869 72.7157 22.4358 73.115 22.1337C73.5144 21.8693 73.714 21.3216 73.714 20.4907C73.714 20.2263 73.6959 19.8674 73.6596 19.4142C73.6596 19.0975 73.649 18.8028 73.6279 18.53C73.6163 18.3797 73.6931 18.2353 73.8269 18.1657C73.8951 18.1302 73.9728 18.1171 74.0489 18.1281L74.6717 18.2189C75.8102 18.3847 76.656 19.3609 76.6369 20.5113C76.628 21.0466 76.6157 21.6063 76.6001 22.1903C76.5638 23.5879 76.5457 24.7776 76.5457 25.7597C76.5457 26.5151 76.582 27.5538 76.6546 28.8758C76.7173 29.6371 76.78 30.411 76.8428 31.1975C76.9159 32.1145 76.1422 32.8742 75.2265 32.7859C74.5342 32.7192 73.9934 32.1769 73.858 31.4947C73.684 30.6171 73.4545 29.9897 73.1695 29.6123C72.7701 29.1213 72.0441 28.838 70.9913 28.7624C69.1035 28.6491 67.1068 28.5358 65.0012 28.4225C62.8956 28.347 60.79 28.2714 58.6845 28.1959C56.6152 28.1581 54.6729 28.1203 52.8578 28.0826C51.0789 28.0448 49.5723 28.0259 48.338 28.0259C46.8859 28.0259 45.9057 28.177 45.3974 28.4792C44.8892 28.8191 44.6351 29.4423 44.6351 30.3488C44.6351 30.8398 44.6532 31.3309 44.6895 31.8219C44.7191 32.2528 44.7487 32.6211 44.7783 32.9266C44.7901 33.048 44.7328 33.166 44.6293 33.2305C44.5629 33.272 44.4835 33.2875 44.4064 33.2742L43.6385 33.141C42.4659 32.9377 41.6288 31.8927 41.6747 30.7035C41.6813 30.5323 41.6879 30.3575 41.6945 30.1788C41.6945 29.1968 41.7127 28.2337 41.749 27.2894C41.749 26.3451 41.749 25.5708 41.749 24.9665C41.749 24.0978 41.6945 23.0024 41.5856 21.6804C41.5305 21.0112 41.466 20.3517 41.3923 19.7018Z" fill="white"/>
<path d="M28.0261 1.35128C29.0426 1.35128 30.0833 1.30092 31.1482 1.2002C32.2131 1.09948 33.2296 1.02393 34.1977 0.973574C35.1174 0.872852 35.8677 0.77213 36.4485 0.671408C36.8855 0.595627 37.2738 0.958662 37.2276 1.39978L37.0395 3.19326C36.947 4.07528 36.2878 4.7796 35.4367 5.02861C34.0042 5.44769 33.0103 5.98455 32.4551 6.63918C31.7291 7.49532 31.366 8.93061 31.366 10.945L31.2934 41.6904C31.2934 43.2516 31.4629 44.3092 31.8017 44.8632C32.1405 45.4171 32.8182 45.6941 33.8347 45.6941C34.2703 45.6941 34.8028 45.6689 35.432 45.6186C35.6912 45.5961 35.8925 45.5786 36.036 45.5662C36.2026 45.5518 36.365 45.6232 36.4669 45.7558C36.548 45.8612 36.5827 45.995 36.5633 46.1265L36.1514 48.9122C36.0734 49.4393 35.6002 49.8159 35.069 49.7733C34.3913 49.7733 33.5685 49.7482 32.6004 49.6978C31.5839 49.6978 30.5916 49.6726 29.6235 49.6223C28.607 49.6223 27.7599 49.6223 27.0823 49.6223C26.5498 49.6223 25.8964 49.6223 25.1219 49.6223C24.299 49.6726 23.4519 49.6978 22.5807 49.6978C21.7094 49.7482 20.8865 49.7985 20.112 49.8489C19.2892 49.8992 18.6357 49.9244 18.1516 49.9244C17.6679 49.9748 17.1811 50.0028 16.6949 49.992C12.2605 49.8937 8.8495 48.8891 6.46199 46.9783C3.89656 45.0142 2.61384 42.1437 2.61384 38.3666C2.61384 35.8485 3.33991 33.5823 4.79204 31.5679C5.0958 31.157 5.42286 30.7627 5.77322 30.3849C7.16263 28.8867 6.7862 25.595 5.08246 24.467C3.48512 23.4094 2.2508 22.1252 1.37953 20.6144C0.459842 19.1035 1.65034e-07 17.3661 0 15.402C-2.3274e-07 12.6321 0.77447 10.1141 2.32341 7.84785C3.87235 5.63197 6.00214 3.86933 8.71279 2.55995C11.4234 1.25056 14.4729 0.595868 17.8612 0.595868C18.5389 0.595868 19.3134 0.646229 20.1846 0.746951C21.0559 0.797312 21.9272 0.872853 22.7985 0.973575C23.6697 1.0743 24.5652 1.17502 25.4849 1.27574C26.3562 1.3261 27.2033 1.35128 28.0261 1.35128ZM17.6466 23.3939C21.2237 23.3179 24.1126 20.4498 24.2143 16.8733L24.3958 10.4918C24.3958 8.72916 23.815 7.47014 22.6533 6.71472C21.4431 5.95931 19.4586 5.5816 16.6995 5.5816C14.0373 5.5816 11.9559 6.33702 10.4553 7.84785C8.90641 9.40904 8.13194 11.5242 8.13194 14.1933C8.13194 18.972 10.8222 21.9926 16.2028 23.2552C16.6748 23.3659 17.1619 23.4042 17.6466 23.3939ZM23.885 29.4176C23.8879 28.8828 23.4767 28.4378 22.9437 28.3951C22.3144 28.3448 21.54 28.244 20.6203 28.093C19.7006 27.9922 18.8535 27.9167 18.079 27.8663C17.813 27.849 17.5727 27.8347 17.3581 27.8233C16.7325 27.7902 16.1125 27.9193 15.5378 28.1685C14.9086 28.4707 14.2067 28.9491 13.4322 29.6038C12.6093 30.2585 11.9075 31.165 11.3266 32.3233C10.6974 33.4816 10.3827 34.9924 10.3827 36.8558C10.3827 39.7767 11.3266 41.9422 13.2144 43.3523C15.1022 44.7624 18.0306 45.4675 21.9998 45.4675C22.4838 45.4675 22.8227 45.3416 23.0163 45.0898C23.1615 44.8883 23.2583 44.4603 23.3067 43.8056C23.4035 42.3451 23.5003 40.7084 23.5971 38.8954C23.6455 37.1327 23.7182 35.3701 23.815 33.6075C23.8542 32.1777 23.8776 30.7811 23.885 29.4176Z" fill="white"/>
<path d="M56.1458 49.4623C55.4145 49.4968 54.6823 49.4464 53.9563 49.3529C53.2293 49.2592 52.3088 49.1674 51.1946 49.0776C50.0805 48.9877 48.8937 48.8985 47.6343 48.81C46.4234 48.721 45.3339 48.6813 44.3658 48.6907C43.1558 48.7024 41.8738 48.7905 40.5199 48.9547C39.166 49.119 38.0055 49.2562 37.0383 49.3663C36.3451 49.4871 35.7271 48.9149 35.7942 48.2145L35.9168 46.9338C36.0017 46.0482 36.6546 45.3353 37.5039 45.0707C38.8879 44.6395 39.8525 44.0963 40.3978 43.4411C41.1157 42.5276 41.4651 41.0133 41.4461 38.8983L41.246 8.53122C41.2315 6.91973 41.0523 5.83867 40.7086 5.28801C40.4132 4.73689 39.7572 4.46627 38.7408 4.47615C38.2568 4.48086 37.7246 4.51122 37.1442 4.56722C36.9215 4.58871 36.7415 4.60608 36.6042 4.61933C36.4009 4.63895 36.2036 4.5441 36.0918 4.37309C36.0192 4.26202 35.9892 4.12841 36.0074 3.99696L36.4046 1.1334C36.4721 0.646691 36.9067 0.296579 37.3966 0.334263C37.9774 0.328616 38.7037 0.346736 39.5754 0.388623C40.495 0.379681 41.4149 0.395919 42.335 0.437336C43.3031 0.427924 44.1259 0.419923 44.8035 0.413335C45.6264 0.405335 46.667 0.395217 47.9255 0.382981C49.1835 0.320387 50.4173 0.258029 51.6269 0.195905C52.8849 0.133312 53.9253 0.0980145 54.7482 0.0900143C54.9724 0.0748623 55.1678 0.0616616 55.3344 0.0504122C55.8144 0.0179809 56.2955 -0.00296578 56.7766 0.00175756C61.3131 0.0462938 65.2675 0.937228 68.6398 2.67456C72.1895 4.45312 74.9477 7.04519 76.9146 10.4508C78.9294 13.8055 79.9574 17.7742 79.9985 22.3568C80.0334 26.2345 79.4362 29.8161 78.2072 33.1016C76.9777 36.3368 75.2365 39.1993 72.9838 41.689C70.7306 44.1283 68.0854 46.0426 65.0483 47.432C62.3199 48.6347 59.3523 49.3115 56.1458 49.4623ZM51.597 4.95552C50.6774 4.96446 50.0491 5.07129 49.7121 5.27602C49.4235 5.48028 49.2583 5.96033 49.2167 6.71619C48.9951 14.3735 48.8121 20.9477 48.6678 26.4387C48.5235 31.9297 48.4622 35.8838 48.4839 38.301C48.4984 39.9125 48.7275 41.1693 49.1712 42.0716C49.615 42.9738 50.3953 43.6209 51.5122 44.013C52.677 44.3542 54.3001 44.5147 56.3814 44.4944C61.1732 44.4479 64.8606 42.6997 67.4436 39.2498C70.0745 35.7492 71.3614 30.8263 71.3044 24.4811C71.2651 20.0999 70.5063 16.4559 69.028 13.5492C67.5497 10.6425 65.3519 8.47311 62.4346 7.04094C59.5174 5.60877 55.9048 4.91363 51.597 4.95552Z" fill="white"/>
</svg>
