<svg width="30" height="31" viewBox="0 0 30 31" fill="none" xmlns="http://www.w3.org/2000/svg">
<path d="M12.8654 14.0433C13.1124 13.8592 13.2316 13.5553 13.2316 13.1374C13.2401 12.9387 13.2004 12.7429 13.1152 12.5647C13.0386 12.4215 12.925 12.3017 12.786 12.217C12.6418 12.1269 12.4816 12.0673 12.3148 12.0416C12.1332 12.0066 11.9487 11.989 11.767 11.9919H9.77175V14.3209H11.9317C12.3035 14.3238 12.6185 14.2303 12.8654 14.0433ZM13.2004 16.1473C12.9222 15.9281 12.5504 15.82 12.0878 15.82H9.76607V18.5668H12.0424C12.2552 18.5668 12.4511 18.5464 12.6412 18.5055C12.8211 18.4693 12.9926 18.3978 13.1464 18.2951C13.2912 18.1987 13.4076 18.0672 13.4955 17.8977C13.5807 17.7282 13.6233 17.5119 13.6233 17.2519C13.6233 16.7346 13.4813 16.3694 13.2004 16.1473ZM15.4681 2.1705C8.44628 2.1705 2.75275 8.03239 2.75275 15.2619C2.75275 22.4913 8.44628 28.3532 15.4681 28.3532C22.49 28.3532 28.1835 22.4913 28.1835 15.2619C28.1835 8.03239 22.49 2.1705 15.4681 2.1705ZM17.9232 10.5542H21.8514V11.539H17.9232V10.5542ZM15.4681 18.675C15.2844 19.034 15.022 19.3442 14.7018 19.5808C14.3669 19.8205 13.9951 19.9958 13.6006 20.0981C13.1878 20.2119 12.762 20.268 12.3347 20.2646H7.63454V10.2971H12.2041C12.6668 10.2971 13.0868 10.3409 13.47 10.4227C13.8503 10.5046 14.1739 10.6448 14.4464 10.8348C14.716 11.0247 14.9289 11.2789 15.0793 11.5945C15.2269 11.9072 15.3035 12.2988 15.3035 12.7634C15.3035 13.266 15.1928 13.681 14.9714 14.017C14.7472 14.3531 14.4236 14.6248 13.9837 14.8381C14.5826 15.0135 15.0225 15.3262 15.312 15.7645C15.6072 16.2087 15.7519 16.7405 15.7519 17.3658C15.7519 17.8743 15.6583 18.3097 15.4681 18.675ZM23.3812 17.1321H18.3177C18.3177 17.699 18.5079 18.2425 18.7946 18.5347C19.0841 18.824 19.4984 18.9701 20.0406 18.9701C20.4322 18.9701 20.7643 18.8678 21.0481 18.6662C21.3291 18.4646 21.4994 18.2513 21.5619 18.0292H23.2591C22.9867 18.8971 22.5723 19.5166 22.0103 19.8906C21.454 20.2646 20.7728 20.4517 19.9809 20.4517C19.4275 20.4517 18.9308 20.3581 18.4852 20.1799C18.0566 20.0075 17.6706 19.7445 17.3527 19.4055C17.0393 19.0574 16.797 18.648 16.6403 18.2016C16.4672 17.7077 16.382 17.1876 16.3877 16.6645C16.3877 16.1239 16.4757 15.6213 16.646 15.1537C16.9724 14.2449 17.6507 13.5173 18.5164 13.1404C18.979 12.9417 19.4757 12.8423 19.9781 12.8481C20.5741 12.8481 21.0907 12.965 21.5391 13.2047C21.9709 13.4335 22.3457 13.7614 22.6347 14.1631C22.9214 14.5635 23.1229 15.0193 23.2506 15.5336C23.3727 16.0392 23.4152 16.571 23.3812 17.1321ZM19.9185 14.3385C19.612 14.3385 19.3537 14.394 19.155 14.5021C18.9563 14.6102 18.7917 14.7446 18.6668 14.8995C18.5479 15.0491 18.46 15.2221 18.4086 15.408C18.3631 15.5628 18.3319 15.7206 18.3206 15.8814H21.4568C21.4114 15.3758 21.2411 15.0018 21.0141 14.7388C20.7757 14.4787 20.3925 14.3385 19.9185 14.3385Z" fill="white"/>
</svg>
