<svg width="31" height="31" viewBox="0 0 31 31" fill="none" xmlns="http://www.w3.org/2000/svg">
<path d="M14.8522 12.7005V9.44809L9.53895 13.0891L11.9117 14.7197L14.8522 12.7005ZM22.0642 16.7243V14.3924L20.3669 15.5584L22.0642 16.7243ZM15.5305 2.45239C8.50866 2.45239 2.81512 8.31428 2.81512 15.5438C2.81512 22.7732 8.50866 28.6351 15.5305 28.6351C22.5523 28.6351 28.2459 22.7732 28.2459 15.5438C28.2459 8.31428 22.5523 2.45239 15.5305 2.45239ZM23.4208 18.0276C23.4208 18.0598 23.418 18.089 23.4152 18.1182C23.4152 18.1299 23.4123 18.1387 23.4095 18.1474C23.4055 18.1794 23.3979 18.2108 23.3868 18.2409C23.3811 18.2585 23.3754 18.276 23.3698 18.2906C23.3641 18.3023 23.3584 18.314 23.3556 18.3257C23.3471 18.3403 23.3414 18.3578 23.3329 18.3724C23.3272 18.3841 23.3215 18.3929 23.313 18.4046C23.3045 18.4192 23.2931 18.4338 23.2846 18.4484C23.2761 18.4601 23.2704 18.4689 23.2619 18.4776C23.2506 18.4893 23.2392 18.5039 23.2278 18.5156C23.2193 18.5244 23.2108 18.5331 23.1995 18.5419C23.1881 18.5536 23.1739 18.5653 23.1597 18.5741C23.1484 18.5828 23.1399 18.5916 23.1285 18.5974C23.1257 18.6004 23.12 18.6033 23.1172 18.6062L15.9052 23.5505C15.7916 23.6294 15.6611 23.6674 15.5305 23.6674C15.3971 23.6674 15.2665 23.6265 15.153 23.5505L7.94101 18.6091C7.93817 18.6062 7.9325 18.6033 7.92966 18.6004L7.89844 18.577C7.88425 18.5653 7.87289 18.5565 7.86154 18.5448C7.85302 18.5361 7.84451 18.5273 7.83316 18.5185C7.8218 18.5068 7.81045 18.4952 7.7991 18.4805C7.79068 18.4715 7.78308 18.4618 7.77639 18.4513C7.76504 18.4367 7.75652 18.4221 7.74801 18.4075C7.74233 18.3958 7.73382 18.387 7.72814 18.3753C7.71963 18.3607 7.71111 18.3432 7.70544 18.3286C7.69976 18.3169 7.69408 18.3052 7.69124 18.2935C7.68557 18.276 7.67989 18.2585 7.67421 18.2439C7.67138 18.2322 7.6657 18.2205 7.66286 18.2088C7.65719 18.1883 7.65435 18.1708 7.65151 18.1503C7.64867 18.1416 7.64867 18.1299 7.64583 18.1211C7.64299 18.0919 7.64016 18.0598 7.64016 18.0305V13.0862C7.64016 13.057 7.64299 13.0248 7.64583 12.9956C7.64867 12.9868 7.64867 12.9752 7.65151 12.9664C7.65551 12.9344 7.66313 12.903 7.67421 12.8729C7.67989 12.8554 7.68557 12.8378 7.69124 12.8232C7.69692 12.8115 7.7026 12.7998 7.70544 12.7881C7.71111 12.7735 7.71963 12.756 7.72814 12.7414C7.73382 12.7297 7.73949 12.7209 7.74801 12.7092C7.76504 12.6829 7.78207 12.6596 7.7991 12.6362C7.81045 12.6245 7.8218 12.6099 7.83316 12.5982C7.84167 12.5894 7.85019 12.5807 7.86154 12.5719C7.87289 12.5602 7.88708 12.5485 7.89844 12.5398C7.90979 12.531 7.9183 12.5222 7.92966 12.5164C7.9325 12.5135 7.93817 12.5105 7.94101 12.5076L15.153 7.56621C15.3801 7.41133 15.6781 7.41133 15.9052 7.56621L23.1172 12.5076C23.12 12.5105 23.1257 12.5135 23.1285 12.5164L23.1597 12.5398L23.1995 12.5719C23.208 12.5807 23.2165 12.5894 23.2278 12.5982C23.2392 12.6099 23.2506 12.6216 23.2619 12.6362C23.2818 12.6596 23.2988 12.6829 23.313 12.7092C23.3187 12.7209 23.3272 12.7297 23.3329 12.7414C23.3414 12.756 23.3499 12.7706 23.3556 12.7881C23.3612 12.7998 23.3669 12.8115 23.3698 12.8232C23.3754 12.8407 23.3811 12.8583 23.3868 12.8729C23.3896 12.8846 23.3953 12.8963 23.3981 12.908C23.4038 12.9284 23.4067 12.9459 23.4095 12.9664C23.4123 12.9752 23.4123 12.9868 23.4152 12.9956C23.418 13.0248 23.4208 13.057 23.4208 13.0862V18.0276ZM16.2088 18.4163V21.6686L21.5221 18.0276L19.1493 16.397L16.2088 18.4163ZM8.99684 14.3924V16.7243L10.6941 15.5584L8.99684 14.3924ZM15.5305 13.9103L13.1322 15.5584L15.5305 17.2065L17.9288 15.5584L15.5305 13.9103ZM21.5221 13.0891L16.2088 9.44809V12.7005L19.1493 14.7197L21.5221 13.0891ZM11.9117 16.397L9.53895 18.0276L14.8522 21.6686V18.4163L11.9117 16.397Z" fill="#FDFDFD"/>
</svg>
