<svg width="31" height="31" viewBox="0 0 31 31" fill="none" xmlns="http://www.w3.org/2000/svg">
<path d="M27.6404 15.4028C27.6424 17.045 27.3284 18.6714 26.7163 20.1879C26.1043 21.7045 25.2064 23.0811 24.0746 24.2382C22.9521 25.392 21.6197 26.3066 20.1536 26.9299C18.6876 27.5532 17.1166 27.8729 15.5305 27.8708C8.8422 27.8708 3.4206 22.2889 3.4206 15.4028C3.41637 12.2059 4.60911 9.13028 6.75082 6.81551C7.88088 5.58779 9.24238 4.61039 10.752 3.94313C12.2616 3.27587 13.8876 2.93278 15.5305 2.93486C17.1166 2.93274 18.6876 3.25247 20.1536 3.87576C21.6197 4.49905 22.9521 5.41369 24.0746 6.5674C25.2064 7.72457 26.1043 9.10118 26.7163 10.6177C27.3284 12.1342 27.6424 13.7606 27.6404 15.4028V15.4028Z" stroke="white" stroke-width="1.66667" stroke-linecap="round" stroke-linejoin="round"/>
<path d="M27.6404 15.4028C25.8736 15.4028 20.9993 14.7171 16.6368 16.6889C11.8975 18.8315 8.46621 22.1548 6.97064 24.222" stroke="white" stroke-width="1.66667" stroke-linecap="round" stroke-linejoin="round"/>
<path d="M10.9893 3.84128C12.8845 5.64228 17.02 10.2274 18.5579 14.7794C20.0959 19.3315 20.6651 24.9283 21.0162 26.5211" stroke="white" stroke-width="1.66667" stroke-linecap="round" stroke-linejoin="round"/>
<path d="M3.51385 13.8443C5.80141 13.9865 11.857 14.1143 15.7321 12.4105C19.6073 10.7068 22.9417 7.57293 24.0855 6.57861M4.32885 20.1487C5.39592 22.8081 7.32042 25.0077 9.7783 26.3771" stroke="white" stroke-width="1.66667" stroke-linecap="round" stroke-linejoin="round"/>
<path d="M3.4206 15.4028C3.41637 12.2059 4.60911 9.13028 6.75082 6.81551M15.5305 2.93485C13.8876 2.93278 12.2616 3.27587 10.752 3.94313C9.24238 4.61039 7.88088 5.58779 6.75082 6.81551M20.3744 3.97219C21.7535 4.59343 23.0083 5.47348 24.0746 6.5674C25.2064 7.72456 26.1043 9.10118 26.7163 10.6177C27.3284 12.1342 27.6424 13.7606 27.6404 15.4028C27.6404 16.9376 27.3709 18.4082 26.8774 19.7666M15.5305 27.8708C17.1166 27.8729 18.6876 27.5532 20.1536 26.9299C21.6197 26.3066 22.9521 25.392 24.0746 24.2382" stroke="white" stroke-width="1.66667" stroke-linecap="round" stroke-linejoin="round"/>
</svg>
