<svg width="30" height="30" viewBox="0 0 30 30" fill="none" xmlns="http://www.w3.org/2000/svg">
<path d="M0 7.47999C0 5.41445 1.62633 3.73999 3.6325 3.73999H25.4275C27.4337 3.73999 29.06 5.41444 29.06 7.47999V22.44C29.06 24.5055 27.4337 26.18 25.4275 26.18H3.6325C1.62633 26.18 0 24.5055 0 22.44V7.47999ZM3.6325 5.60999C2.62941 5.60999 1.81625 6.44722 1.81625 7.47999V7.8856L14.53 15.7396L27.2437 7.8856V7.47999C27.2437 6.44722 26.4306 5.60999 25.4275 5.60999H3.6325ZM27.2437 10.0664L18.6927 15.3488L27.2437 20.7667V10.0664ZM27.1824 22.9236L16.938 16.4328L14.53 17.9204L12.122 16.4328L1.87757 22.9236C2.08459 23.722 2.79185 24.31 3.6325 24.31H25.4275C26.2682 24.31 26.9754 23.722 27.1824 22.9236ZM1.81625 20.7667L10.3673 15.3488L1.81625 10.0664V20.7667Z" fill="white"/>
</svg>
