<svg width="31" height="31" viewBox="0 0 31 31" fill="none" xmlns="http://www.w3.org/2000/svg">
<g clip-path="url(#clip0_3_287)">
<path fill-rule="evenodd" clip-rule="evenodd" d="M15.5305 0.723145C7.50166 0.723145 0.998657 7.41844 0.998657 15.6847C0.998657 22.3052 5.1584 27.8971 10.9348 29.8795C11.6614 30.0104 11.9339 29.5615 11.9339 29.1688C11.9339 28.8135 11.9157 27.6352 11.9157 26.3822C8.26459 27.0742 7.32002 25.4658 7.02938 24.6242C6.8659 24.1941 6.15747 22.8663 5.53986 22.5109C5.03125 22.2304 4.30466 21.5384 5.5217 21.5197C6.66608 21.501 7.4835 22.6044 7.75597 23.0533C9.06384 25.3162 11.1528 24.6803 11.9884 24.2876C12.1155 23.3151 12.497 22.6605 12.9148 22.2865C9.68144 21.9125 6.30279 20.622 6.30279 14.8992C6.30279 13.2722 6.8659 11.9256 7.7923 10.8783C7.64698 10.5043 7.13837 8.9707 7.93762 6.91349C7.93762 6.91349 9.15466 6.52075 11.9339 8.44705C13.0964 8.11041 14.3316 7.9421 15.5668 7.9421C16.8021 7.9421 18.0373 8.11041 19.1998 8.44705C21.979 6.50205 23.1961 6.91349 23.1961 6.91349C23.9953 8.9707 23.4867 10.5043 23.3414 10.8783C24.2678 11.9256 24.8309 13.2534 24.8309 14.8992C24.8309 20.6407 21.4341 21.9125 18.2007 22.2865C18.7275 22.754 19.1816 23.6517 19.1816 25.0544C19.1816 27.0555 19.1635 28.6639 19.1635 29.1688C19.1635 29.5615 19.436 30.0291 20.1625 29.8795C23.0473 28.8767 25.5541 26.9678 27.33 24.4215C29.1059 21.8751 30.0615 18.8195 30.0624 15.6847C30.0624 7.41844 23.5594 0.723145 15.5305 0.723145Z" fill="white"/>
</g>
<defs>
<clipPath id="clip0_3_287">
<rect width="29.0637" height="29.9231" fill="white" transform="translate(0.998657 0.723145)"/>
</clipPath>
</defs>
</svg>
