<svg width="30" height="30" viewBox="0 0 30 30" fill="none" xmlns="http://www.w3.org/2000/svg">
<path d="M14.53 8.96723C11.309 8.96723 8.70951 11.6437 8.70951 14.96C8.70951 18.2763 11.309 20.9528 14.53 20.9528C17.751 20.9528 20.3505 18.2763 20.3505 14.96C20.3505 11.6437 17.751 8.96723 14.53 8.96723ZM14.53 18.8549C12.447 18.8549 10.7471 17.1047 10.7471 14.96C10.7471 12.8153 12.447 11.0651 14.53 11.0651C16.613 11.0651 18.3129 12.8153 18.3129 14.96C18.3129 17.1047 16.613 18.8549 14.53 18.8549ZM20.5889 7.32514C19.8369 7.32514 19.2296 7.95042 19.2296 8.72472C19.2296 9.49901 19.8369 10.1243 20.5889 10.1243C21.341 10.1243 21.9483 9.50194 21.9483 8.72472C21.9485 8.54086 21.9135 8.35876 21.8452 8.18885C21.777 8.01894 21.6769 7.86456 21.5506 7.73455C21.4243 7.60454 21.2744 7.50146 21.1094 7.43121C20.9444 7.36095 20.7675 7.32491 20.5889 7.32514V7.32514ZM25.8759 14.96C25.8759 13.3471 25.8901 11.7489 25.8021 10.1389C25.7141 8.26891 25.2998 6.60928 23.9717 5.24184C22.6407 3.87148 21.0316 3.44781 19.2154 3.35723C17.6489 3.26666 16.0965 3.28126 14.5329 3.28126C12.9663 3.28126 11.414 3.26666 9.85034 3.35723C8.03409 3.44781 6.42217 3.87441 5.09403 5.24184C3.76306 6.6122 3.35157 8.26891 3.26359 10.1389C3.17562 11.7518 3.18981 13.35 3.18981 14.96C3.18981 16.57 3.17562 18.1711 3.26359 19.7811C3.35157 21.6511 3.7659 23.3107 5.09403 24.6782C6.425 26.0485 8.03409 26.4722 9.85034 26.5628C11.4169 26.6533 12.9692 26.6387 14.5329 26.6387C16.0994 26.6387 17.6517 26.6533 19.2154 26.5628C21.0316 26.4722 22.6435 26.0456 23.9717 24.6782C25.3027 23.3078 25.7141 21.6511 25.8021 19.7811C25.8929 18.1711 25.8759 16.5729 25.8759 14.96V14.96ZM23.3786 21.8498C23.1714 22.3816 22.9217 22.7789 22.5215 23.188C22.1214 23.6 21.7383 23.8571 21.2218 24.0704C19.729 24.6811 16.1845 24.5437 14.53 24.5437C12.8755 24.5437 9.32817 24.6811 7.83544 24.0733C7.31894 23.86 6.93299 23.6029 6.53568 23.1909C6.13554 22.7789 5.88581 22.3845 5.67864 21.8527C5.08836 20.3129 5.22174 16.6635 5.22174 14.96C5.22174 13.2565 5.08836 9.6042 5.67864 8.0673C5.88581 7.53551 6.13554 7.13814 6.53568 6.72908C6.93582 6.32001 7.31894 6.05997 7.83544 5.84667C9.32817 5.23892 12.8755 5.37625 14.53 5.37625C16.1845 5.37625 19.7319 5.23892 21.2246 5.84667C21.7411 6.05997 22.1271 6.31709 22.5244 6.72908C22.9245 7.14106 23.1742 7.53551 23.3814 8.0673C23.9717 9.6042 23.8383 13.2565 23.8383 14.96C23.8383 16.6635 23.9717 20.3129 23.3786 21.8498Z" fill="white"/>
</svg>
