<svg width="31" height="31" viewBox="0 0 31 31" fill="none" xmlns="http://www.w3.org/2000/svg">
<path d="M25.0585 4.13696H6.00249C4.99491 4.13696 4.17749 4.97855 4.17749 6.01592V25.6354C4.17749 26.6728 4.99491 27.5144 6.00249 27.5144H25.0585C26.0661 27.5144 26.8835 26.6728 26.8835 25.6354V6.01592C26.8835 4.97855 26.0661 4.13696 25.0585 4.13696ZM25.0585 25.6442C12.3488 25.6413 5.99397 25.6384 5.99397 25.6354C5.99681 12.5499 5.99965 6.00716 6.00249 6.00716C18.7122 6.01008 25.067 6.013 25.067 6.01592C25.0642 19.1014 25.0614 25.6442 25.0585 25.6442ZM7.54366 12.9006H10.9127V24.0575H7.54366V12.9006ZM9.22958 11.3752C10.3053 11.3752 11.1823 10.4752 11.1823 9.36474C11.1823 9.10072 11.1318 8.83929 11.0337 8.59537C10.9355 8.35145 10.7917 8.12982 10.6104 7.94313C10.429 7.75644 10.2138 7.60835 9.97685 7.50732C9.73994 7.40628 9.48602 7.35428 9.22958 7.35428C8.97315 7.35428 8.71922 7.40628 8.48231 7.50732C8.24539 7.60835 8.03013 7.75644 7.8488 7.94313C7.66747 8.12982 7.52364 8.35145 7.42551 8.59537C7.32737 8.83929 7.27686 9.10072 7.27686 9.36474C7.27402 10.4752 8.14821 11.3752 9.22958 11.3752ZM16.3905 18.5375C16.3905 17.0822 16.6601 15.6737 18.4113 15.6737C20.137 15.6737 20.1625 17.3364 20.1625 18.631V24.0575H23.5287V17.9384C23.5287 14.9344 22.8986 12.623 19.4899 12.623C17.8522 12.623 16.7538 13.5493 16.3025 14.426H16.2571V12.9006H13.0243V24.0575H16.3905V18.5375Z" fill="white"/>
</svg>
