<svg width="31" height="30" viewBox="0 0 31 30" fill="none" xmlns="http://www.w3.org/2000/svg">
<path fill-rule="evenodd" clip-rule="evenodd" d="M28.7583 0.289423C29.011 0.568906 29.0888 0.988056 28.9561 1.35503L23.6131 16.129C23.3716 16.1074 23.1274 16.0963 22.8809 16.0963C22.4695 16.0963 22.0647 16.1271 21.6681 16.1866L25.6809 5.09055L12.2921 19.8993L14.2701 23.3373C14.0601 24.1775 13.9478 25.0627 13.9478 25.9768C13.9478 26.1447 13.9516 26.3116 13.9591 26.4774L10.5067 20.4768L1.583 14.1958C0.661787 13.5474 0.790913 12.0179 1.80474 11.5693L27.7949 0.0706976C28.1267 -0.0760942 28.5056 0.00993958 28.7583 0.289423ZM24.4176 3.69324L3.27742 13.0461L11.0288 18.502L24.4176 3.69324ZM19.2207 21.0275C18.3595 21.0275 17.6614 21.6911 17.6614 22.5096V28.4379C17.6614 29.2564 18.3595 29.92 19.2207 29.92H28.576C29.4372 29.92 30.1353 29.2564 30.1353 28.4379V22.5096C30.1353 21.6911 29.4372 21.0275 28.576 21.0275H19.2207ZM18.441 22.5096C18.441 22.1003 18.7901 21.7686 19.2207 21.7686H28.576C29.0066 21.7686 29.3557 22.1003 29.3557 22.5096V22.6703L23.8984 25.7827L18.441 22.6703V22.5096ZM25.6852 25.6278L29.3557 23.5345V27.7748L25.6852 25.6278ZM24.932 26.0574L29.3293 28.6296C29.2405 28.9459 28.9369 29.179 28.576 29.179H19.2207C18.8598 29.179 18.5562 28.9459 18.4674 28.6296L22.8647 26.0574L23.8984 26.6469L24.932 26.0574ZM22.1115 25.6278L18.441 27.7748V23.5345L22.1115 25.6278Z" fill="white"/>
</svg>
