<svg width="30" height="30" viewBox="0 0 30 30" fill="none" xmlns="http://www.w3.org/2000/svg">
<path fill-rule="evenodd" clip-rule="evenodd" d="M28.789 0.311715C29.0507 0.612726 29.1313 1.06416 28.9938 1.45941L23.5625 17.0766C23.0003 16.9682 22.4202 16.9115 21.8273 16.9115C21.7601 16.9115 21.693 16.9123 21.6262 16.9137L25.6016 5.48265L11.7346 21.432L12.926 23.5853C12.6422 24.5012 12.4891 25.4767 12.4891 26.4889C12.4891 26.5819 12.4904 26.6746 12.493 26.767L9.88536 22.054L0.642889 15.2892C-0.311227 14.5909 -0.177489 12.9436 0.872553 12.4605L27.7911 0.076143C28.1348 -0.0819553 28.5273 0.0107052 28.789 0.311715ZM24.2932 3.97771L2.39784 14.051L10.4261 19.9271L24.2932 3.97771ZM17.6388 20.485C17.6388 19.7504 18.1033 19.1548 18.6763 19.1548H22.8267C23.3997 19.1548 23.8642 19.7504 23.8642 20.485V21.2388L24.3525 21.5726C24.6906 21.8038 24.9018 22.2551 24.9018 22.7463V28.4662C24.9018 29.2008 24.4373 29.7964 23.8642 29.7964H17.6388C17.0657 29.7964 16.6012 29.2008 16.6012 28.4662V22.7463C16.6012 22.2551 16.8124 21.8038 17.1505 21.5726L17.6388 21.2388V20.485ZM24.1084 22.1595L23.8642 21.9926V23.6887L24.383 23.2897V22.7463C24.383 22.5007 24.2774 22.2751 24.1084 22.1595ZM21.4 25.5843L23.3454 24.0878V20.485C23.3454 20.1177 23.1132 19.8199 22.8267 19.8199H18.6763C18.3898 19.8199 18.1576 20.1177 18.1576 20.485V24.0878L20.103 25.5843L20.7515 25.0854L21.4 25.5843ZM17.12 23.2897L17.6388 23.6887V21.9926L17.3946 22.1595C17.2256 22.2751 17.12 22.5007 17.12 22.7463V23.2897ZM24.383 27.8788V24.0653L21.9042 25.9721L24.383 27.8788ZM23.8642 29.1313C24.1037 29.1313 24.3052 28.9233 24.365 28.6406L20.7515 25.8611L17.138 28.6406C17.1978 28.9233 17.3993 29.1313 17.6388 29.1313H23.8642ZM17.12 24.0653V27.8788L19.5988 25.9721L17.12 24.0653Z" fill="white"/>
</svg>
