<svg width="15" height="17" viewBox="0 0 15 17" fill="none" xmlns="http://www.w3.org/2000/svg">
<path fill-rule="evenodd" clip-rule="evenodd" d="M14.8548 0.200514C14.9809 0.341945 15.0197 0.554054 14.9535 0.739762L12.3362 8.07754C12.0652 8.02663 11.7857 8 11.5 8C11.4676 8 11.4353 8.00034 11.4031 8.00102L13.3188 2.63011L6.63637 10.124L7.21051 11.1358C7.07378 11.5661 7 12.0244 7 12.5C7 12.5437 7.00062 12.5873 7.00186 12.6307L5.74525 10.4162L1.29137 7.23777C0.831589 6.90966 0.896037 6.13565 1.40204 5.90867L14.3739 0.0898286C14.5395 0.0155452 14.7286 0.0590822 14.8548 0.200514ZM12.6883 1.923L2.13707 6.65599L6.00584 9.4169L12.6883 1.923ZM9.5 10.625C9.5 10.2798 9.72386 10 10 10H12C12.2761 10 12.5 10.2798 12.5 10.625V10.9792L12.7353 11.136C12.8982 11.2446 13 11.4567 13 11.6875V14.375C13 14.7202 12.7761 15 12.5 15H9.5C9.22386 15 9 14.7202 9 14.375V11.6875C9 11.4567 9.10177 11.2446 9.26471 11.136L9.5 10.9792V10.625ZM12.6176 11.4117L12.5 11.3333V12.1303L12.75 11.9428V11.6875C12.75 11.5721 12.6991 11.4661 12.6176 11.4117ZM11.3125 13.0209L12.25 12.3178V10.625C12.25 10.4524 12.1381 10.3125 12 10.3125H10C9.86193 10.3125 9.75 10.4524 9.75 10.625V12.3178L10.6875 13.0209L11 12.7865L11.3125 13.0209ZM9.25 11.9428L9.5 12.1303V11.3333L9.38235 11.4117C9.30089 11.4661 9.25 11.5721 9.25 11.6875V11.9428ZM11.5555 13.2031L12.75 14.099V12.3072L11.5555 13.2031ZM12.5 14.6875C12.6154 14.6875 12.7125 14.5898 12.7413 14.4569L11 13.151L9.25869 14.4569C9.28749 14.5898 9.38462 14.6875 9.5 14.6875H12.5ZM9.25 12.3072V14.099L10.4445 13.2031L9.25 12.3072Z" fill="black"/>
</svg>
