<svg width="30" height="30" viewBox="0 0 30 30" fill="none" xmlns="http://www.w3.org/2000/svg">
<path d="M14.53 1.87C7.50903 1.87 1.81622 7.73128 1.81622 14.96C1.81622 22.1887 7.50903 28.05 14.53 28.05C21.5509 28.05 27.2437 22.1887 27.2437 14.96C27.2437 7.73128 21.5509 1.87 14.53 1.87ZM20.64 11.7372C20.6485 11.8745 20.6485 12.0177 20.6485 12.1579C20.6485 16.4472 17.4757 21.3881 11.6779 21.3881C9.89002 21.3881 8.23269 20.8534 6.83645 19.933C7.09186 19.9622 7.33592 19.9739 7.59701 19.9739C9.07271 19.9739 10.4292 19.4597 11.5105 18.589C10.1256 18.5597 8.96203 17.6247 8.56473 16.3391C9.05001 16.4122 9.48704 16.4122 9.98651 16.2807C9.27342 16.1315 8.63248 15.7328 8.17258 15.1522C7.71267 14.5716 7.46217 13.845 7.46363 13.0958V13.0549C7.8808 13.2974 8.37175 13.4465 8.88541 13.4669C8.4536 13.1706 8.09948 12.7692 7.85443 12.2983C7.60939 11.8273 7.481 11.3014 7.48065 10.7671C7.48065 10.1623 7.6339 9.61004 7.90917 9.13085C8.70067 10.134 9.68833 10.9545 10.808 11.539C11.9276 12.1234 13.1542 12.4587 14.4079 12.5232C13.9624 10.3171 15.563 8.53187 17.4871 8.53187C18.3952 8.53187 19.2125 8.9234 19.7886 9.55453C20.5009 9.4172 21.182 9.14254 21.7893 8.77439C21.5538 9.52531 21.06 10.1594 20.4044 10.5597C21.0401 10.4895 21.6531 10.3084 22.2207 10.0542C21.7921 10.7028 21.2558 11.2784 20.64 11.7372V11.7372Z" fill="white"/>
</svg>
